<svg id="ecd52a6b-9d9d-4c0c-8668-3ab53eb64b48" data-name="The Starting Point Photo" xmlns="http://www.w3.org/2000/svg" width="192" height="192" viewBox="0 0 192 192">
  <defs>
    <style>
      .\34 6a62447-b0bd-4993-80e2-6a3e7204d126 {
        fill: #78909c;
        stroke-width: 5px;
      }

      .\34 6a62447-b0bd-4993-80e2-6a3e7204d126, .\36 813865b-e324-48b9-9256-ed3f061c2ad9, .df1861d9-52b8-4fa9-9f0f-9500d0f7d264 {
        stroke: #231f20;
      }

      .\34 6a62447-b0bd-4993-80e2-6a3e7204d126, .df1861d9-52b8-4fa9-9f0f-9500d0f7d264 {
        stroke-miterlimit: 10;
      }

      .\36 813865b-e324-48b9-9256-ed3f061c2ad9 {
        stroke-linecap: round;
        stroke-linejoin: round;
      }

      .df1861d9-52b8-4fa9-9f0f-9500d0f7d264 {
        fill: #fc9;
        stroke-width: 2px;
      }

      .\38 cf58afc-bc92-465f-b0fb-0b8bdf5048a1 {
        fill: #bf360c;
      }
    </style>
  </defs>
  <title>muse_ic_material_product_icon_192px</title>
  <rect class="46a62447-b0bd-4993-80e2-6a3e7204d126" x="21.54006" y="21.19904" width="148.97826" height="148.97826" rx="12" ry="12"/>
  <rect class="6813865b-e324-48b9-9256-ed3f061c2ad9" x="78.31534" y="38.57749" width="3.98684" height="114.22136" transform="translate(135.20407 207.90326) rotate(-166.06183)"/>
  <rect class="6813865b-e324-48b9-9256-ed3f061c2ad9" x="109.69782" y="38.57749" width="3.98684" height="114.22136" transform="translate(-19.76025 29.72101) rotate(-13.93817)"/>
  <rect class="6813865b-e324-48b9-9256-ed3f061c2ad9" x="76.89583" y="56.60417" width="39.375" height="3.95833"/>
  <rect class="6813865b-e324-48b9-9256-ed3f061c2ad9" x="61.79167" y="114.64583" width="73.54167" height="3.95833"/>
  <rect class="df1861d9-52b8-4fa9-9f0f-9500d0f7d264" x="44.08333" y="61.70833" width="105" height="51.79167"/>
  <g>
    <path class="8cf58afc-bc92-465f-b0fb-0b8bdf5048a1" d="M75.8418,102.28516a1.92875,1.92875,0,0,1-2.04736-1.88574q-.38379-2.3833-.76807-6.71924l-.7251-6.71924a14.89745,14.89745,0,0,0-.7251-2.92578Q70.85107,82.084,69.998,82.084a7.4056,7.4056,0,0,0-2.94336,1.36572,12.16316,12.16316,0,0,0-2.687,2.01563q-.022,2.0376.10645,4.0752l.63965,5.78711a49.92743,49.92743,0,0,1,.40527,5.65674,2.19247,2.19247,0,0,1-.58643,1.57227,2.14029,2.14029,0,0,1-3.00732,0,2.19247,2.19247,0,0,1-.58643-1.57227q0-2.62207-.52246-7.74854-.52295-5.12549-.52246-7.74854a8.14461,8.14461,0,0,0-.63965-3.57666A10.67154,10.67154,0,0,0,56.62549,84.165l-2.5166,2.86084A13.03183,13.03183,0,0,1,53.021,88.3916q0,1.30078-.23437,3.83643-.23511,2.53638-.23486,3.75a11.41111,11.41111,0,0,0,.20264,1.8208,11.2497,11.2497,0,0,1,.20264,1.69043,1.96291,1.96291,0,0,1-.65039,1.49512,2.16166,2.16166,0,0,1-1.5249.60742q-2.4104,0-2.41016-5.57031,0-1.30078.23486-3.87988.23438-2.57959.23438-3.87988,0-1.14844-.20264-3.44629-.20288-2.29761-.20264-3.46826,0-4.91968,2.17578-4.91992a2.067,2.067,0,0,1,1.5249.73682,2.30137,2.30137,0,0,1,.69287,1.604,11.71548,11.71548,0,0,1-.10645,1.27881,11.69781,11.69781,0,0,0-.10693,1.32227l.043,2.27588a12.98226,12.98226,0,0,1,3.26318-4.19434q2.15405-1.87427,3.66846-1.875A4.61361,4.61361,0,0,1,64.19678,80.957a7.637,7.637,0,0,1,2.79395-2.37354,8.35651,8.35651,0,0,1,3.71094-.791q3.56177,0,4.86279,3.90137a57.48535,57.48535,0,0,1,.87451,6.09082q.59692,3.72876,1.53564,12.41943a1.76584,1.76584,0,0,1-.57568,1.47461A2.18071,2.18071,0,0,1,75.8418,102.28516Z"/>
    <path class="8cf58afc-bc92-465f-b0fb-0b8bdf5048a1" d="M100.0918,87.82813q0,1.56079.02148,4.68164.02051,3.12158.02148,4.68164,0,.47754.07422,1.45215.07471.97559.07422,1.45215A2.0294,2.0294,0,0,1,99.665,101.624a2.09957,2.09957,0,0,1-1.51465.59668q-1.64209,0-2.08984-2.05957a12.94857,12.94857,0,0,1-6.14209,1.40918A8.0072,8.0072,0,0,1,85.29,100.3125a5.63382,5.63382,0,0,1-2.40967-4.05273,72.21522,72.21522,0,0,1-.832-10.23047,41.16721,41.16721,0,0,1,.63965-6.7627,1.91957,1.91957,0,0,1,2.02637-1.88574,2.12836,2.12836,0,0,1,1.53564.5957,2.032,2.032,0,0,1,.61865,1.52832,25.68687,25.68687,0,0,1-.30957,3.186A25.89179,25.89179,0,0,0,86.25,86.0293q0,3.61963.23438,6.19873a21.66628,21.66628,0,0,0,.7041,4.14014,7.10766,7.10766,0,0,0,1.38623.59619,4.63781,4.63781,0,0,0,1.34375.20557,21.451,21.451,0,0,0,6.03564-.93213l-.02148-4.3999-.04248-4.20508a70.83575,70.83575,0,0,1,.40479-8.12793,1.93812,1.93812,0,0,1,2.06934-1.99414,2.10577,2.10577,0,0,1,1.53516.60693,1.90586,1.90586,0,0,1,.57617,1.51709Z"/>
    <path class="8cf58afc-bc92-465f-b0fb-0b8bdf5048a1" d="M119.79785,83.79639a1.742,1.742,0,0,1-1.6416-.80176,7.53494,7.53494,0,0,1-.55469-2.34082q-1.59961.41162-4.92676,1.51709-3.43359,1.38721-3.45508,3.4248a7.1005,7.1005,0,0,0,1.25879.34668,20.37123,20.37123,0,0,1,7.29395,2.44922A7.39706,7.39706,0,0,1,121.249,94.981a5.83162,5.83162,0,0,1-3.00781,5.33154,12.24814,12.24814,0,0,1-6.3125,1.47461,15.02933,15.02933,0,0,1-5.332-.9541q-3.28564-1.21289-3.28516-3.38184a2.05028,2.05028,0,0,1,.67188-1.5166,2.13594,2.13594,0,0,1,1.52539-.65039,2.8588,2.8588,0,0,1,1.70605,1.04053,4.8448,4.8448,0,0,0,2.30371.82373,13.796,13.796,0,0,0,2.41016.25977,10.45218,10.45218,0,0,0,3.15625-.43311q1.9834-.62842,1.9834-1.99414,0-2.94727-4.05273-3.98828l-2.21777-.49854A11.75053,11.75053,0,0,1,106.7666,89.02a4.17873,4.17873,0,0,1-1.72754-3.66309,6.6263,6.6263,0,0,1,4.20215-6.459A32.3216,32.3216,0,0,1,113.33594,77.5a31.17034,31.17034,0,0,0,4.03125-1.37646,4.60233,4.60233,0,0,1,1.89746-.39014,2.001,2.001,0,0,1,1.50391.60693,2.18341,2.18341,0,0,1,.58691,1.582,9.38127,9.38127,0,0,0,.2666,1.84277,9.38229,9.38229,0,0,1,.2666,1.84229,2.18183,2.18183,0,0,1-.58691,1.582A1.99914,1.99914,0,0,1,119.79785,83.79639Z"/>
    <path class="8cf58afc-bc92-465f-b0fb-0b8bdf5048a1" d="M136.626,101.4834a11.91223,11.91223,0,0,1-7.80566-2.44922,9.31378,9.31378,0,0,1-3.26367-7.58643,15.999,15.999,0,0,1,2.6875-9.4502,9.08626,9.08626,0,0,1,7.80566-4.16162,12.08215,12.08215,0,0,1,5.78027,1.21387,4.902,4.902,0,0,1,2.751,4.59521q0,2.16724-2.41016,3.94482a33.81181,33.81181,0,0,1-4.52148,2.42725L129.502,93.94043a7.82623,7.82623,0,0,0,2.97559,2.70947,8.99718,8.99718,0,0,0,4.14844.91064,12.8744,12.8744,0,0,0,3.45508-.564,5.46474,5.46474,0,0,0,3.24121-1.875q.7251-1.15869,1.55762-1.15967a1.85839,1.85839,0,0,1,1.333.57471,1.81147,1.81147,0,0,1,.58594,1.333q0,2.406-3.81738,4.14014A15.38846,15.38846,0,0,1,136.626,101.4834ZM136.0498,81.7373a5.43183,5.43183,0,0,0-4.3291,2.04834,13.91919,13.91919,0,0,0-2.58105,6.1665l6.54785-3.16455a28.03152,28.03152,0,0,0,5.50293-3.31641A7.19087,7.19087,0,0,0,136.0498,81.7373Z"/>
  </g>
</svg>
