<svg id="aa7fe1ce-ec95-4f21-9a2e-3a4bd2900fdb" data-name="The Starting Point Photo" xmlns="http://www.w3.org/2000/svg" width="175" height="35" viewBox="0 0 175 35">
  <title>muse_name</title>
  <g>
    <path d="M17.62012,26.09766q-1.29639,0-2.25488-3.32715-.36768-1.26855-.917-4.43994-1.437.19775-3.76367.70459l-3.749.77539Q6.22949,21.65771,4.52441,25.21a1.36962,1.36962,0,0,1-1.22559.78906A1.44814,1.44814,0,0,1,2.291,25.58984a1.32,1.32,0,0,1-.44434-1.01465q0-.67676,2.12891-5.14551a1.50519,1.50519,0,0,1-.24023-.8457q0-1.14111,1.38184-1.46582,1.60693-3.01611,4.05957-6.93506,3.34131-5.34229,4.1582-5.34229,1.11328,0,1.52246,1.55029l.8877,4.73633L17.8457,20.9248l.80371,2.22656a5.8706,5.8706,0,0,1,.4082,1.52246,1.33305,1.33305,0,0,1-.43652,1.01465A1.42377,1.42377,0,0,1,17.62012,26.09766ZM12.64453,9.98584l-4.03125,6.498q1.70508-.43652,5.17285-1.05713Z"/>
    <path d="M34.042,15.25781q-.09814,1.76221-1.40918,1.76172-1.21289,0-1.21191-1.39551,0-.26733-.043-.98633l-.042-1.18408A7.41775,7.41775,0,0,0,27.76953,14.708a6.75016,6.75016,0,0,0-2.08594,2.7627l.02832,7.72461a1.2464,1.2464,0,0,1-1.39551,1.42383q-1.24072,0-1.24121-1.42383V15.2998q0-.46509.03516-1.39551.03516-.93018.03613-1.39551,0-1.4231,1.24023-1.42334,1.38135,0,1.39551,2.33984a8.4704,8.4704,0,0,1,6.00488-2.60791,1.90268,1.90268,0,0,1,1.70605.85986,4.7951,4.7951,0,0,1,.56348,2.59375Q34.05664,15.00415,34.042,15.25781Z"/>
    <path d="M46.377,13.665q-.2959,0-.69727-.02832-.40283-.02856-.69824-.02832-.32373,0-1.917.21143l.26758,8.33057.01465.62012.01367.71973q.05566,3.08643-1.48047,3.08691a1.43411,1.43411,0,0,1-.97949-.36621,1.17226,1.17226,0,0,1-.416-.917q0-.53467.043-1.60645.04248-1.0708.042-1.60742l-.28223-8.23193q-1.02832-.04248-3.12891-.23975a1.2786,1.2786,0,0,1-1.25488-1.39551,1.44994,1.44994,0,0,1,.38086-1.02881,1.27124,1.27124,0,0,1,.97266-.40918l2.96.23975q0-.71851-.06348-1.92383-.063-1.20557-.06348-1.74121a1.29264,1.29264,0,0,1,.40918-.97949,1.40107,1.40107,0,0,1,1.001-.3877q1.26855,0,1.47949,2.07227.04248.52148.043,1.25439l-.02832.81738-.01465.874q1.74756-.22485,2.002-.22559a8.048,8.048,0,0,1,1.917.14111,1.23864,1.23864,0,0,1,.86035,1.3252,1.41447,1.41447,0,0,1-.3877,1.022A1.32261,1.32261,0,0,1,46.377,13.665Z"/>
    <path d="M53.876,19.27539q0,.84521.04883,2.53027.0498,1.68457.0498,2.53027a1.40036,1.40036,0,0,1-.38086,1.01465,1.45716,1.45716,0,0,1-1.99414,0,1.38527,1.38527,0,0,1-.3877-1.01465q0-.84668-.0498-2.53027-.0498-1.68457-.04883-2.53027,0-1.325.14063-3.30566.14063-1.98047.14063-3.30566a1.40906,1.40906,0,0,1,.3877-1.0293,1.44978,1.44978,0,0,1,1.98828,0,1.40906,1.40906,0,0,1,.3877,1.0293q0,1.325-.1416,3.30566Q53.876,17.9502,53.876,19.27539ZM53.24121,7.8291a1.62122,1.62122,0,0,1-1.16992-.47949,1.60088,1.60088,0,0,1,0-2.31152,1.62319,1.62319,0,0,1,1.16992-.47949,1.59973,1.59973,0,0,1,1.16309.47949,1.6165,1.6165,0,0,1,0,2.31152A1.5978,1.5978,0,0,1,53.24121,7.8291Z"/>
    <path d="M68.15527,14.8208a1.15816,1.15816,0,0,1-1.08594-.52148,4.874,4.874,0,0,1-.36621-1.52246q-1.05762.26807-3.25586.98682-2.27051.90234-2.28418,2.22705a4.76135,4.76135,0,0,0,.832.22559,13.59293,13.59293,0,0,1,4.82031,1.59277,4.7901,4.7901,0,0,1,2.29785,4.28564A3.78155,3.78155,0,0,1,67.126,25.5625a8.21283,8.21283,0,0,1-4.17285.958,10.08723,10.08723,0,0,1-3.52344-.62012q-2.1709-.78955-2.1709-2.19922a1.3174,1.3174,0,0,1,.44434-.98633,1.421,1.421,0,0,1,1.00781-.42285,1.8938,1.8938,0,0,1,1.127.67676,3.23455,3.23455,0,0,0,1.52246.53516,9.2498,9.2498,0,0,0,1.59277.16895A7.022,7.022,0,0,0,65.04,23.3916q1.311-.40869,1.31055-1.29687,0-1.91748-2.67773-2.59375l-1.4668-.32422a7.84692,7.84692,0,0,1-2.66406-.959,2.70259,2.70259,0,0,1-1.1416-2.38232,4.30824,4.30824,0,0,1,2.77734-4.20068,21.66893,21.66893,0,0,1,2.70605-.90918,20.72457,20.72457,0,0,0,2.66406-.895,3.09219,3.09219,0,0,1,1.25488-.25342,1.33121,1.33121,0,0,1,.99316.39453,1.404,1.404,0,0,1,.3877,1.02881,5.9617,5.9617,0,0,0,.17676,1.19824,6.02637,6.02637,0,0,1,.17578,1.19824,1.40318,1.40318,0,0,1-.3877,1.02881A1.32973,1.32973,0,0,1,68.15527,14.8208Z"/>
    <path d="M82.124,13.665q-.2959,0-.69727-.02832-.40283-.02856-.69824-.02832-.32373,0-1.917.21143l.26758,8.33057.01465.62012.01367.71973q.05566,3.08643-1.48047,3.08691a1.43411,1.43411,0,0,1-.97949-.36621,1.17226,1.17226,0,0,1-.416-.917q0-.53467.043-1.60645.04248-1.0708.042-1.60742l-.28223-8.23193q-1.02832-.04248-3.12891-.23975a1.2786,1.2786,0,0,1-1.25488-1.39551,1.44994,1.44994,0,0,1,.38086-1.02881,1.27124,1.27124,0,0,1,.97266-.40918l2.96.23975q0-.71851-.06348-1.92383-.063-1.20557-.06348-1.74121a1.29264,1.29264,0,0,1,.40918-.97949,1.40107,1.40107,0,0,1,1.001-.3877q1.26855,0,1.47949,2.07227.04248.52148.043,1.25439l-.02832.81738-.01465.874q1.74756-.22485,2.002-.22559a8.048,8.048,0,0,1,1.917.14111,1.23864,1.23864,0,0,1,.86035,1.3252,1.41447,1.41447,0,0,1-.3877,1.022A1.32261,1.32261,0,0,1,82.124,13.665Z"/>
    <path d="M97.26367,15.25781q-.09814,1.76221-1.40918,1.76172-1.21289,0-1.21191-1.39551,0-.26733-.043-.98633l-.042-1.18408A7.41775,7.41775,0,0,0,90.99121,14.708a6.75016,6.75016,0,0,0-2.08594,2.7627l.02832,7.72461a1.2464,1.2464,0,0,1-1.39551,1.42383q-1.24072,0-1.24121-1.42383V15.2998q0-.46509.03516-1.39551.03516-.93018.03613-1.39551,0-1.4231,1.24023-1.42334,1.38135,0,1.39551,2.33984a8.4704,8.4704,0,0,1,6.00488-2.60791,1.90268,1.90268,0,0,1,1.70605.85986,4.7951,4.7951,0,0,1,.56348,2.59375Q97.27832,15.00415,97.26367,15.25781Z"/>
    <path d="M112.459,13.10107l-4.877,10.54346q-1.80469,3.84961-2.7627,6.44238l-.93066,2.73437a1.30791,1.30791,0,0,1-1.26855,1.01563,1.476,1.476,0,0,1-1.02148-.3877,1.24771,1.24771,0,0,1-.43066-.96582q0-1.40918,3.04492-8.16211L99.167,14.60938l-.63477-1.0293a2.2771,2.2771,0,0,1-.38086-1.08545A1.509,1.509,0,0,1,99.58984,11.043a1.15609,1.15609,0,0,1,1,.49316,55.35654,55.35654,0,0,1,5.14551,9.47266l2.08594-4.86279q1.12793-2.52319,2.1709-4.3418a1.34154,1.34154,0,0,1,1.18457-.78955,1.46432,1.46432,0,0,1,1.02148.40869,1.28063,1.28063,0,0,1,.44434.97266A1.70845,1.70845,0,0,1,112.459,13.10107Z"/>
  </g>
  <g>
    <path d="M133.91406,5.77734V26.16309h-4.63379l-.00586-13.76221-1.84473,13.76221h-3.28711l-1.94531-13.44775-.00586,13.44775h-4.63379V5.77734H124.417q.30469,1.83911.62891,4.334l.75293,5.18555,1.21777-9.51953Z"/>
    <path d="M148.0918,5.77734v13.624a23.69143,23.69143,0,0,1-.15039,3.25488,4.42963,4.42963,0,0,1-.89453,1.92676,4.632,4.632,0,0,1-1.958,1.498,7.36816,7.36816,0,0,1-2.86426.50977,8.05016,8.05016,0,0,1-3.22363-.60449,4.84,4.84,0,0,1-2.08984-1.57324,4.34675,4.34675,0,0,1-.81836-2.0459q-.126-1.07666-.126-4.52686V5.77734h5.30078V21.06348a6.02483,6.02483,0,0,0,.14453,1.70605.56813.56813,0,0,0,.58594.37207.61339.61339,0,0,0,.64844-.41016,7.66259,7.66259,0,0,0,.14453-1.93262V5.77734Z"/>
    <path d="M161.376,11.94727h-4.92285V10.43652a2.95945,2.95945,0,0,0-.18945-1.34717.69392.69392,0,0,0-.62891-.29.80217.80217,0,0,0-.72461.39111,2.27029,2.27029,0,0,0-.24512,1.18408,3.34873,3.34873,0,0,0,.27637,1.53711,3.99219,3.99219,0,0,0,1.49707,1.24658,15.10574,15.10574,0,0,1,4.459,3.44775,7.90309,7.90309,0,0,1,.91895,4.34424,7.62472,7.62472,0,0,1-.50977,3.21094,3.9942,3.9942,0,0,1-1.9707,1.73145,7.7929,7.7929,0,0,1-3.39941.69824,7.602,7.602,0,0,1-3.63281-.80566,3.95167,3.95167,0,0,1-1.9707-2.05176,10.52659,10.52659,0,0,1-.46582-3.53906v-1.335H154.791v2.48145a3.25857,3.25857,0,0,0,.208,1.47266.80145.80145,0,0,0,.73633.32813.86394.86394,0,0,0,.78711-.416,2.3751,2.3751,0,0,0,.25781-1.23437,3.82624,3.82624,0,0,0-.49121-2.35449,15.66506,15.66506,0,0,0-2.48047-1.85059,24.53318,24.53318,0,0,1-2.61914-1.90137A4.45176,4.45176,0,0,1,150.126,13.748a7.20232,7.20232,0,0,1-.42187-2.66943,7.40912,7.40912,0,0,1,.59766-3.4248A4.02353,4.02353,0,0,1,152.23438,5.96a7.71741,7.71741,0,0,1,3.22363-.61035,8.40019,8.40019,0,0,1,3.51953.667,3.68881,3.68881,0,0,1,1.92676,1.68115,8.9087,8.9087,0,0,1,.47168,3.44385Z"/>
    <path d="M163.47852,5.77734h8.83887V9.85742H168.7793v3.86523h3.31152v3.87842H168.7793V22.083h3.89063v4.08008h-9.19141Z"/>
  </g>
</svg>
