<svg id="a82b78ab-9e60-4508-b82d-f5f4eeabf69b" data-name="The Starting Point Photo" xmlns="http://www.w3.org/2000/svg" width="192" height="192" viewBox="0 0 192 192">
  <defs>
    <style>
      .cca4b8a5-7b59-42ed-9d65-33c24d510d04 {
        fill: #78909c;
        stroke-width: 5px;
      }

      .\39 6ea43ef-d393-4a87-be30-f166f4d7c23e, .bab5f0be-b64d-40f8-a738-0ad3c3b39a49, .cca4b8a5-7b59-42ed-9d65-33c24d510d04 {
        stroke: #231f20;
      }

      .\39 6ea43ef-d393-4a87-be30-f166f4d7c23e, .cca4b8a5-7b59-42ed-9d65-33c24d510d04 {
        stroke-miterlimit: 10;
      }

      .\32 b4b44cb-23df-43e8-8f82-9d23465eafbb, .\34 8564995-4272-4de2-b310-55660133ad09, .bab5f0be-b64d-40f8-a738-0ad3c3b39a49 {
        stroke-linecap: round;
        stroke-linejoin: round;
      }

      .\39 6ea43ef-d393-4a87-be30-f166f4d7c23e {
        fill: #3354ff;
        stroke-width: 2px;
      }

      .\32 b4b44cb-23df-43e8-8f82-9d23465eafbb, .edc08053-0605-4e48-b710-c9a75c16bedf {
        fill: #fff;
      }

      .\32 b4b44cb-23df-43e8-8f82-9d23465eafbb, .\34 8564995-4272-4de2-b310-55660133ad09 {
        stroke: #000;
      }

      .\34 8564995-4272-4de2-b310-55660133ad09 {
        fill: none;
      }

      .\39 cef173c-7752-42fe-8497-8c519fa1dcdb {
        fill: #ffe19a;
      }

      .cb001939-02cb-4ecb-bddb-fbb23d958672 {
        fill: #30ff05;
      }

      .\34 f211b3a-5f5e-4b32-b097-37cef8920a1d {
        fill: #0c4001;
      }
    </style>
  </defs>
  <title>muse_painting_ic_material_product_icon_192px</title>
  <rect class="cca4b8a5-7b59-42ed-9d65-33c24d510d04" x="21.54006" y="21.19904" width="148.97826" height="148.97826" rx="12" ry="12"/>
  <rect class="bab5f0be-b64d-40f8-a738-0ad3c3b39a49" x="78.31534" y="38.57749" width="3.98684" height="114.22136" transform="translate(135.20407 207.90326) rotate(-166.06183)"/>
  <rect class="bab5f0be-b64d-40f8-a738-0ad3c3b39a49" x="109.69782" y="38.57749" width="3.98684" height="114.22136" transform="translate(-19.76025 29.72101) rotate(-13.93817)"/>
  <rect class="bab5f0be-b64d-40f8-a738-0ad3c3b39a49" x="76.89583" y="56.60417" width="39.375" height="3.95833"/>
  <rect class="bab5f0be-b64d-40f8-a738-0ad3c3b39a49" x="61.79167" y="114.64583" width="73.54167" height="3.95833"/>
  <rect class="96ea43ef-d393-4a87-be30-f166f4d7c23e" x="44.08333" y="61.70833" width="105" height="51.79167"/>
  <g>
    <line class="2b4b44cb-23df-43e8-8f82-9d23465eafbb" x1="50.79877" y1="104.9585" x2="72.58298" y2="68.85892"/>
    <line class="48564995-4272-4de2-b310-55660133ad09" x1="88.97303" y1="103.71369" x2="72.58299" y2="68.85892"/>
    <line class="48564995-4272-4de2-b310-55660133ad09" x1="85.12644" y1="100.48633" x2="98.56249" y2="82.83504"/>
    <line class="48564995-4272-4de2-b310-55660133ad09" x1="113.45436" y1="102.88382" x2="98.56249" y2="82.9668"/>
    <line class="48564995-4272-4de2-b310-55660133ad09" x1="105.06293" y1="97.33372" x2="124.65768" y2="75.08299"/>
    <line class="48564995-4272-4de2-b310-55660133ad09" x1="140.63278" y1="104.12863" x2="124.65768" y2="75.08299"/>
  </g>
  <path class="edc08053-0605-4e48-b710-c9a75c16bedf" d="M72.45833,81.66667c3.21726,0,3.22259-5,0-5-3.21726,0-3.22259,5,0,5Z"/>
  <path class="edc08053-0605-4e48-b710-c9a75c16bedf" d="M74.60817,77.9276c-.4132-.64233.28622-1.80273-.39305-.79864L72.721,78.27786l.22578-.07977-1.9264-.252.23691.14066-1.1489-1.49408c.1865.48584.1125,1.101.3346,1.6196.21182.49464.74314.89844.90953,1.37391,1.05431,3.01272,5.58866,1.83125,4.8214-1.3292l-.075-.65447-4.26777,1.76777c.47868.48234.62743,2.216,1.088,2.9152a6.46614,6.46614,0,0,1,1.49125,3.05586l4.26777-1.76777c-2.19164-1.9119-4.14989-2.22814-6.05466.19723L76.802,84.87394c-.7402-3.0735-3.71077-3.24052-6.1957-1.95342l3.7618,2.15868-.09191-.85359a2.5349,2.5349,0,0,0-3.1646-2.4107.8099.8099,0,0,0-.68136.29217l2.15868,1.2382c-.73552-.9918-.83108-1.97268-2.33635-2.19623a2.89163,2.89163,0,0,0-1.44122.178,7.22916,7.22916,0,0,0-.72587.33486q-.78211.48388-.04813.08745l1.76777.73223-.32257-.33969.73223,1.76777-.00522-.46842c-.02-1.79268-2.14621-3.25192-3.7618-2.15868a8.38935,8.38935,0,0,0-3.50544,4.34121l1.7461-1.7461-.34161.11946L67.17,87.66969c1.00567-2.17687,2.79856-3.74973,3.85294-5.8645.38194-.76607.4235-1.62638.76187-2.37864A17.60894,17.60894,0,0,1,73.88838,76.422c1.92851-2.57742-2.41012-5.07257-4.31735-2.5236a19.88825,19.88825,0,0,0-2.89272,5.349c-.80178,2.13274-2.84569,3.77751-3.82563,5.89868-.82824,1.79281.572,4.45975,2.82328,3.6725,1.83281-.64093,1.8246-2.22338,3.29535-3.21862L65.2095,83.4413A3.21824,3.21824,0,0,0,67.3727,86.6601a3.95022,3.95022,0,0,0,1.79145.02793c.43465-.101,2.3731-.66556.75607-.58364l-2.15868-1.2382c.59731.80748.63957,1.5766,1.70545,2.02557a4.15645,4.15645,0,0,0,2.97376-.25546l-3.1646-2.4107.09191.85359a2.5374,2.5374,0,0,0,3.7618,2.15868l-.20985-.3155-1.1489-1.49408a7.14019,7.14019,0,0,1,.20946.77484c.406,1.6859,3.00262,2.6004,4.17846,1.10317a9.34471,9.34471,0,0,1,.9556-1.12132l-1.76777.73223q-1.01612-.36326-.20424.19185c1.4657,1.27862,4.49119.56481,4.26777-1.76777a10.89639,10.89639,0,0,0-1.72809-5.02783c-.91986-1.47435-1.0474-3.20087-2.3156-4.47876a2.52719,2.52719,0,0,0-4.26777,1.76777,8.24048,8.24048,0,0,0,.25363,1.98367L76.174,78.257c-.26238-.74976-.80317-1.28056-1.08836-1.96895-.09731-.23489-.05109-.72827-.15577-1.02455a2.83657,2.83657,0,0,0-3.3122-1.88676c-2.94553.7211-2.606,5.086-1.32681,7.0745,1.73523,2.69746,6.06507.19327,4.31735-2.5236Z"/>
  <path class="edc08053-0605-4e48-b710-c9a75c16bedf" d="M69.50467,78.74971l-.03008,2.3006c-.00259.19829-.01906.76054-.00347.75483a.71141.71141,0,0,1,.27447-.46617q-.17611.19551-.37034.373c-1.74419,1.67362.03855,5.00561,2.43237,4.17846a3.30343,3.30343,0,0,0,1.9655-1.54841,2.5004,2.5004,0,0,0-4.31735-2.5236l.12322-.17686,1.10317-.64293-.20374.0704,2.43237,4.17846a4.738,4.738,0,0,0,1.54006-3.24661c.073-1.07747.03971-2.17139.05383-3.25121.04209-3.21852-4.95789-3.22022-5,0Z"/>
  <path class="edc08053-0605-4e48-b710-c9a75c16bedf" d="M65.20814,82.882l-1.03953-.0285,2.15868,3.7618a7.226,7.226,0,0,0,1.12151-2.79607l-4.56937.5972.03641.07131.89688-3.42047-.09663.0513,3.7618,2.15868c-.06775-.547,1.13312-2.66292,1.39521-3.27562.54717-1.27917,1.315-3.1711,2.4112-4.0624l-2.43237.64293c4.27854.793,4.256-4.11609,5.2993-6.8513h-4.8214a41.02131,41.02131,0,0,1,.3542,4.29709c.398,3.096,4.93487,3.3186,5,0q.36736-1.09331-.14235-.71441l-3.42047.89688q-1.57376-.94317-.83811,1.16474a2.53346,2.53346,0,0,0,4.26777,1.76777l-.10389-.03637-2.82328-1.1489q.11615.75644.20109,1.5172c.24079,1.88226,2.70978,3.63117,4.26777,1.76777A5.23739,5.23739,0,0,1,77.201,78.10511l-4.26777-1.76777a20.55259,20.55259,0,0,0,2.13541,6.6323c.75319,1.60673,3.58383,1.66517,4.31735,0l-1.03208.78068-2.43237-.64293a2.5858,2.5858,0,0,1,.64494,2.45022c-.17813,2.81978,4.24983,3.38743,4.9107.6646l.09679-.39879-4.17846,1.10317q-.94777.16889-.362,1.348c.0758,3.21305,4.96253,3.22562,5,0l.00811-.69853h-5l.03355.59848a2.52335,2.52335,0,0,0,4.65868,1.2618l-2.69121-1.11219,4.26777-1.76777-.33426-.36568c-2.17569-2.38023-5.70385,1.16336-3.53553,3.53553l.33426.36568a2.52431,2.52431,0,0,0,4.26777-1.76777c-.26277-4.39536-4.41687-4.46075-6.62615-1.41141l4.65868,1.2618-.03355-.59848c-.17892-3.19191-4.96234-3.24257-5,0l-.00811.69853h5c-.045-1.90741.14686-3.39306-1.10251-4.88351-1.213-1.447-3.7594-.62343-4.17846,1.10317l-.09679.39879,4.9107.6646c.1354-2.14326-.37455-4.94244-2.3624-6.18121A2.818,2.818,0,0,0,75.06864,80.446H79.386a14.26077,14.26077,0,0,1-1.45277-4.10871,2.5368,2.5368,0,0,0-4.26777-1.76777A5.23739,5.23739,0,0,0,72.557,75.707l4.26777,1.76777A10.27164,10.27164,0,0,0,75.941,73.434a2.52091,2.52091,0,0,0-2.82328-1.1489,7.516,7.516,0,0,0-2.10245,1.32223l4.26777,1.76777c-.04866-1.86581.38432-4.46985-1.6383-5.4821a2.52984,2.52984,0,0,0-3.42047.89688,7.38467,7.38467,0,0,0-.5403,3.238h5a51.674,51.674,0,0,0-.5328-5.62629c-.61939-2.59625-4.00511-2.14-4.8214,0-.15335.402-.99594,2.54165-.7239,2.97161.7284,1.15123,2.3045-.50983.57829.34284A5.8205,5.8205,0,0,0,66.17428,74.476a25.7664,25.7664,0,0,0-2.12259,4.1964c-.50682,1.28331-1.75038,3.17933-1.57382,4.60482a2.53825,2.53825,0,0,0,3.7618,2.15868l.09663-.0513a2.54762,2.54762,0,0,0,.89688-3.42047l-.03641-.07131a2.52523,2.52523,0,0,0-4.56937.5972l-.61747,1.60167a2.52445,2.52445,0,0,0,2.15868,3.7618l1.03953.0285c3.21864.08824,3.21636-4.91182,0-5Z"/>
  <path class="edc08053-0605-4e48-b710-c9a75c16bedf" d="M63.84252,85.17929a4.77335,4.77335,0,0,0-2.05044-.55177l2.5,2.5q.00388-.95972-.007-1.91934c-.017-1.49826-1.60368-2.99893-3.1646-2.4107a2.86471,2.86471,0,0,0-1.95378,2.196,4.31212,4.31212,0,0,0,.07962,2.59835,2.81571,2.81571,0,0,0,5.329-.45454h-4.8214a3.19245,3.19245,0,0,0,.35742.81109,2.5004,2.5004,0,0,0,4.31735-2.5236l.14662.38331a2.55388,2.55388,0,0,0-2.4107-1.8354,2.5256,2.5256,0,0,0-2.4107,1.8354l.89371-1.16576,1.2618-.34132.95091.257.89688.89688q.2162,1.48717.23507.82423.03661-.34488-.00143-.02334-.04465.32059.01371-.02117.12079-.48878-.1351.26334l-1.49408,1.1489.07428-.028-3.1646-2.4107q.01087.95966.007,1.91934a2.55158,2.55158,0,0,0,2.5,2.5q-.5428-.10368-.2575-.032.2719.0779-.21566-.0989a2.5004,2.5004,0,0,0,2.5236-4.31735Z"/>
  <path class="edc08053-0605-4e48-b710-c9a75c16bedf" d="M97.6027,85.20119a14.49465,14.49465,0,0,1-2.34522,1.2573L98.93,89.28177a6.1742,6.1742,0,0,1,.22475-1.1742c.648-2.67555-3.18477-4.50073-4.56937-1.9264l-1.18514,2.20348c-1.29794,2.41321,1.945,5.207,3.92644,3.02956l.7595-.83462-3.53553-3.53553a22.19829,22.19829,0,0,1-2.01328,1.95817L96.4638,92.0318a11.214,11.214,0,0,1,.84-1.386c1.62038-2.29248-2.183-5.27683-3.92644-3.02956-1.61492,2.08161-1.85223,5.25892,1.26357,6.103a4.6426,4.6426,0,0,0,5.80026-3.16153l-4.8214-1.3292a17.22553,17.22553,0,0,0-.20549,2.3298c-.00592,2.3844,3.5152,3.53031,4.65868,1.2618a6.02231,6.02231,0,0,0,.70232-2.66719h-5c.13064,1.56968.155,3.09941,1.86942,3.82153,1.66336.70063,2.81206-.37473,3.96155-1.38221l-4.26777-1.76777.18254,1.51939a2.578,2.578,0,0,0,2.5,2.5,2.52964,2.52964,0,0,0,2.5-2.5,5.2567,5.2567,0,0,1,.26864-1.79262h-4.8214c.248,1.71062.97652,3.46139,3.02385,3.46139,2.13579,0,2.94046-2.24692,3.11316-3.9883l-4.65868,1.2618a3.18319,3.18319,0,0,0,.55519.90694c1.12811,1.53681,4.14755,1.73855,4.56937-.5972a7.6142,7.6142,0,0,0,.018-2.70469l-.252,1.9264a5.07505,5.07505,0,0,0-.31031-5.32182c-1.10368-1.46759-3.26538-1.74218-4.31735,0a3.40173,3.40173,0,0,0-.49738,1.79584l3.7618-2.15868c-.6703-.39391-1.03256-.96923-1.83775-1.188a3.1625,3.1625,0,0,0-2.602.41161l3.7618,2.15868a4.221,4.221,0,0,0-.8007-2.59741c-1.03978-1.38532-3.3735-1.83567-4.31735,0l-.21227.41284,4.65868,1.2618-.06972-1.23251c-.15375-2.71806-4.18386-3.51193-4.9107-.6646l-.08841.19765,4.56937.5972-.02349-.42779c.07836-2.91148-4.048-3.2688-4.9107-.6646l.20454-.285c-2.71128,1.717-.20555,6.0457,2.5236,4.31735a4.69317,4.69317,0,0,0,2.09326-2.70316l-4.9107-.6646a6.47435,6.47435,0,0,0,.2021,1.757c.51355,2.16711,3.47112,2.35134,4.56937.5972a4.68934,4.68934,0,0,0,.59245-1.392l-4.9107-.6646.06972,1.23251c.13107,2.3171,3.45392,3.60488,4.65868,1.2618l.21227-.41284H97.178l.11805.07382a2.521,2.521,0,0,0,3.7618,2.15868l.29325-.19322-1.2618.34132.38233.03364-1.2618-.34132c.44288.24511.79126.67193,1.24055.936a2.52487,2.52487,0,0,0,3.7618-2.15868l.0073-.28769-.34132,1.2618.14876-.24635H99.70951c.5621.74743.15986-.09467.18429.57323a12.59917,12.59917,0,0,1-.144,1.67409l4.56937-.5972a3.18318,3.18318,0,0,1-.55519-.90694c-1.21836-2.42606-4.43683-.97519-4.65868,1.2618l.11907-.27947,2.43237-.64293-.23042-.06093,1.49408,1.1489a5.31387,5.31387,0,0,0-.13071-.96786c-.37818-2.609-4.15-2.13284-4.8214,0a9.8422,9.8422,0,0,0-.44724,3.12182h5l-.18254-1.51939a2.53822,2.53822,0,0,0-4.26777-1.76777c-.3082.27013-.538.57037-.85695.82868l1.76777-.73223-.37363.03661,1.76777.73223q.58159,1.2.39962.23092c-.26412-3.17353-4.8828-3.25754-5,0l-.01967.1436,4.65868,1.2618a9.11015,9.11015,0,0,1,.02688-1.0006,2.59,2.59,0,0,0-1.7461-3.0753,2.52545,2.52545,0,0,0-3.0753,1.7461c.24029-1.05025,1.34189.539,1.36693.63092v1.3292l-.07383-.03681-3.92644-3.02956a11.214,11.214,0,0,0-.84,1.386,2.51163,2.51163,0,0,0,3.92644,3.02956,22.19829,22.19829,0,0,0,2.01328-1.95817c2.1561-2.37868-1.3635-5.92239-3.53553-3.53553l-.7595.83462,3.92644,3.02956,1.18514-2.20348-4.56937-1.9264a6.1742,6.1742,0,0,0-.22475,1.1742,2.54189,2.54189,0,0,0,3.6725,2.82328,14.49465,14.49465,0,0,0,2.34522-1.2573c2.675-1.76375.1732-6.09549-2.5236-4.31735Z"/>
  <path class="edc08053-0605-4e48-b710-c9a75c16bedf" d="M118.87581,82.26358l-.35724.39227,1.76777-.73223-.499-.00857,2.4107,1.8354a7.86767,7.86767,0,0,1-.08262-1.43991c-.04072-2.37873-3.47721-3.53466-4.65868-1.2618l-.94781,1.82334a2.51119,2.51119,0,0,0,3.92644,3.02956,31.05143,31.05143,0,0,1,2.41069-2.0687l-4.17846-2.43237-.10123.3906c-.809,3.12173,3.89275,4.40855,4.8214,1.3292a8.9549,8.9549,0,0,1,1.083-2.32607l-4.56937-1.9264a3.36948,3.36948,0,0,1-.33693,1.37641c-.95433,2.64723,3.32122,4.46929,4.56937,1.9264.46051-.9382.95533-1.84509,1.49506-2.74007l-4.65868-1.2618-.04932.53469c-1.03889,3.13534,3.61324,4.19861,4.8214,1.3292q.34162-.803.72345-1.58762l-4.65868-1.2618-.02431.55249c-.12254,2.7852,4.32559,3.44126,4.9107.6646l.186-.88255-4.9107-.6646a8.018,8.018,0,0,0,1.05926,4.85523,2.52082,2.52082,0,0,0,4.65868-1.2618l.05284-1.88189h-5a10.268,10.268,0,0,0,1.24194,4.321,2.5272,2.5272,0,0,0,4.56937-.5972,7.48633,7.48633,0,0,0,.25078-1.81375L124.143,81.7366l1.64329,2.48956a2.52253,2.52253,0,0,0,4.65868-1.2618l.00889-.11637-1.8354,2.4107.12471-.04973-2.43237-.64293a3.53575,3.53575,0,0,1,.592,2.70644l4.65868-1.2618-.299-.438c-1.20293-2.86319-5.79709-1.84407-4.8214,1.3292l.08156.26526,3.6725-2.82328c-1.512-.97635-3.21138-2.11489-5.01821-1.03819-1.592.94867-1.553,2.9663-1.283,4.54931.48087,2.81894,4.92752,2.09557,4.9107-.6646l-.01781-2.92092h-5c.01177.94357.00154,1.87824-.03086,2.82133L128.0237,85.323l-.2517-.29925.73223,1.76777a9.57623,9.57623,0,0,0-1.1459-4.17766,2.52747,2.52747,0,0,0-4.31735,0q-.644.98647-1.31422,1.952l4.56937.5972-.13829-.94042c-.22271-2.07134-2.60913-3.40194-4.26777-1.76777l-1.484,1.46213,4.17846,1.10317c-.18791-1.33264-.36739-2.64418-1.73895-3.27021a2.65411,2.65411,0,0,0-3.02956.39091,15.81765,15.81765,0,0,0-1.915,2.22872l4.17846,1.10317c-.33942-1.81352-.52275-3.8803-2.683-4.44-1.96231-.50846-3.49782,1.242-4.85161,2.35373l3.92644,3.02956.37415-.61422-4.56937-1.9264a8.50728,8.50728,0,0,0-.55226,1.58836c-.67911,2.31693,2.504,4.33985,4.17846,2.43237l.45033-.513-3.92644-3.02956A11.80674,11.80674,0,0,0,113.729,86.287a2.51182,2.51182,0,0,0,4.56937,1.9264c.2181-.33946,1.26516-1.22929.61914-1.19614l-1.76777-.73223c-.46963-.42564-.09561.11982.08374.57678a2.5375,2.5375,0,0,0,4.17846,1.10317c.18088-.1671,1.79591-1.79864,1.04734-1.31559l-1.9264.252.46663.184-1.49408-1.1489c.75333,1.26985,1.32147,2.74674,3.08865,2.72457,1.89859-.02382,2.72522-2.01321,3.6-3.373l-4.56937-.5972a4.43516,4.43516,0,0,1,.22733,1.10229c.31622,2.24762,3.55974,2.26352,4.56937.5972q.785-.95843-.03991-.37639l-3.02956-.39091.0667.05566c2.45428,2.048,6.0098-1.4709,3.53553-3.53553l-.0667-.05566a2.58822,2.58822,0,0,0-3.02956-.39091,5.6271,5.6271,0,0,0-1.75385,2.17015l4.56937.5972a4.43516,4.43516,0,0,0-.22733-1.10229,2.53088,2.53088,0,0,0-4.56937-.5972,8.67453,8.67453,0,0,1-1.05041,1.62879l2.43237-.64293-.16089-.05278,1.49408,1.1489c-.90294-1.24966-1.22916-2.64513-3.06208-2.81114-1.92173-.174-2.46036,1.29195-3.65337,2.39408l4.17846,1.10317c-.673-1.71461-1.056-3.52626-3.36347-3.50374-2.10729.02056-3.67713,2.05271-4.71039,3.66094l4.56937,1.9264.1932-.739c1.01452-2.36782-1.8743-5.36731-3.92644-3.02956l-.45033.513,4.17846,2.43237a8.50729,8.50729,0,0,1,.55226-1.58836c1.08911-2.6945-3.14578-4.26345-4.56937-1.9264l-.37415.61422c-1.56591,2.57068,1.84026,4.74269,3.92644,3.02956.22-.18064.97651-.99888,1.31608-1.06787l-1.9264-.252c-.76836-.48483-.26013.94281-.212,1.19987a2.51338,2.51338,0,0,0,4.17846,1.10317,15.81765,15.81765,0,0,1,1.915-2.22872l-3.02956.39091.27827.127-1.1489-1.49408a8.04768,8.04768,0,0,1,.31177,1.64911c.27388,1.94233,2.97332,2.29053,4.17846,1.10317l1.484-1.46213-4.26777-1.76777c.08249.76718.18284,1.50973.31689,2.26962.4071,2.30777,3.46505,2.18821,4.56937.5972q.67174-.96778,1.31422-1.952H123.041c.74274,1.3258.42034,2.50026,1.44719,3.72108,1.47311,1.75139,4.19887.2375,4.26777-1.76777.0324-.94309.04263-1.87776.03086-2.82133-.04009-3.21485-5.01966-3.22432-5,0l.01781,2.92092,4.9107-.6646-.11791.20036-1.49408,1.1489.55372-.10777-1.9264-.252a15.79144,15.79144,0,0,1,1.9409,1.146A2.5252,2.5252,0,0,0,131.344,85.838l-.08156-.26526-4.8214,1.3292a9.57578,9.57578,0,0,0,.803,1.63239,2.522,2.522,0,0,0,4.65868-1.2618,8.15362,8.15362,0,0,0-2.05646-6.242,2.46416,2.46416,0,0,0-2.43237-.64293l-.12471.04973a2.64409,2.64409,0,0,0-1.8354,2.4107l-.00889.11637,4.65868-1.2618L128.46032,79.213a2.52125,2.52125,0,0,0-4.65868,1.2618l-.07217.48455,4.56937-.5972a3.3236,3.3236,0,0,1-.5593-1.79735c-.24456-3.17676-4.9086-3.255-5,0l-.05284,1.88189,4.65868-1.2618a3.57042,3.57042,0,0,1-.37662-2.33164c.10318-2.781-4.32432-3.44729-4.9107-.6646l-.186.88255,4.9107.6646.02431-.55249c.10534-2.39441-3.59169-3.52043-4.65868-1.2618-.43367.918-.83359,1.84647-1.22749,2.782l4.8214,1.3292a4.07166,4.07166,0,0,0,.22792-1.86389c-.21455-2.38248-3.30151-3.51225-4.65868-1.2618-.53973.895-1.03455,1.80187-1.49506,2.74007l4.56937,1.9264a3.36948,3.36948,0,0,0,.33693-1.37641c.36057-2.6718-2.9423-4.4993-4.56937-1.9264a14.06044,14.06044,0,0,0-1.587,3.52047l4.8214,1.3292.10123-.3906c.68017-2.62452-2.311-3.87664-4.17846-2.43237a31.05143,31.05143,0,0,0-2.41069,2.0687l3.92644,3.02956.94781-1.82334-4.65868-1.2618a9.97347,9.97347,0,0,0,.26123,2.76911,2.56441,2.56441,0,0,0,2.4107,1.8354,3.07062,3.07062,0,0,0,2.624-1.11593c2.16271-2.37473-1.36328-5.92075-3.53553-3.53553Z"/>
  <path class="edc08053-0605-4e48-b710-c9a75c16bedf" d="M104.5,93.58333c3.21726,0,3.22259-5,0-5-3.21726,0-3.22259,5,0,5Z"/>
  <path class="edc08053-0605-4e48-b710-c9a75c16bedf" d="M113.625,91.375c3.21726,0,3.22259-5,0-5-3.21726,0-3.22259,5,0,5Z"/>
  <path class="edc08053-0605-4e48-b710-c9a75c16bedf" d="M115.09586,86.01051a5.87891,5.87891,0,0,0-.658.6696h3.53553c.46591.51838.0571.04439-.04329-.14041-.09446-.17388-.183-.34847-.29148-.51434a3.82243,3.82243,0,0,0-1.50529-1.42486,2.70835,2.70835,0,0,0-1.9264-.252,2.50064,2.50064,0,0,0-.5972,4.56937q.34469.17566-.16393-.17757.266.27914-.12453-.19132c.01123.10189.17119.28764.21831.37484a6.50835,6.50835,0,0,0,.89827,1.29184,2.51146,2.51146,0,0,0,3.53553,0,5.87891,5.87891,0,0,1,.658-.6696,2.51333,2.51333,0,0,0,0-3.53553,2.562,2.562,0,0,0-3.53553,0Z"/>
  <path class="9cef173c-7752-42fe-8497-8c519fa1dcdb" d="M62.04167,93.29167c3.21726,0,3.22259-5,0-5-3.21726,0-3.22259,5,0,5Z"/>
  <path class="9cef173c-7752-42fe-8497-8c519fa1dcdb" d="M62.20847,93.788c2.59037.018,3.48072-.26236,4.77176-2.485l-2.15868,1.2382a5.28737,5.28737,0,0,0,3.92629-1.66193l-2.43237.64293a3.6516,3.6516,0,0,0,1.63151.09248c.58033-.06183,1.39267-.17956.32443-.30549l-2.15868-1.2382c1.47243,2.273,3.98772,1.62383,5.3623-.27149l-3.92644.506c1.34556,1.69348,2.2108,1.64635,4.25026,1.44642l-2.15868-1.2382a4.5254,4.5254,0,0,0,2.22695,2.13936,3.88652,3.88652,0,0,0,1.05792.04864c1.11745.04138,1.36971.01514.46226-.33l-1.7461-1.7461a7.09381,7.09381,0,0,0,.49891,1.34986,2.54842,2.54842,0,0,0,2.82328,1.1489l.2424.00522-2.4107-1.8354.06853.33694A2.52322,2.52322,0,0,0,77.5223,92.893a9.27908,9.27908,0,0,0,1.03019-2.15376l-4.9107-.6646.0451.97858c.1236,2.68186,4.324,3.55762,4.9107.6646l.2839-1.4-4.9107-.6646c-.04946,1.52355-.00085,3.38785,1.442,4.30013,1.23075.77818,2.139.01481,3.33251-.15576L75.922,92.64871c1.4265,1.956,2.57464,2.60146,4.90383,1.54126h-2.5236c.51239.31621,2.07561,1.4779,1.352.41118,1.79622,2.64805,6.13024.149,4.31735-2.5236a4.91127,4.91127,0,0,0-1.903-1.7518,3.61609,3.61609,0,0,0-1.35444-.32353q1.45013.81809.65433.24461c-1.5172-.47-2.0988-.91338-3.69585-.0634h2.5236q.83844.97184.04312-.05832a2.6693,2.6693,0,0,0-2.82328-1.1489,1.98749,1.98749,0,0,0-.96366.3044q-1.02891.62738.88674.10339l1.7461,1.7461a2.54829,2.54829,0,0,1-.11449-1.47686c.09-2.77239-4.34393-3.45948-4.9107-.6646l-.2839,1.4,4.9107.6646-.0451-.97858a2.51255,2.51255,0,0,0-4.9107-.6646l-.52614.95936,4.65868,1.2618a7.46487,7.46487,0,0,0-.24713-1.66614,2.57375,2.57375,0,0,0-2.4107-1.8354,12.03082,12.03082,0,0,0-1.5716.17338l2.82328,1.1489c-.43618-.97164-.77-1.63988-1.9166-1.96835a3.78878,3.78878,0,0,0-1.50483-.06679c-2.32851.16075,1.04114.75258.92149.57335a2.49358,2.49358,0,0,0-2.15868-1.2382c-.78243.0767-1.51822.17868-2.29063.32771l2.43237.64293a5.14371,5.14371,0,0,1-.85646-.9526c-1.09592-1.37929-3.08889-.64888-3.92644.506l-.36076.49744,2.15868-1.2382-.5619-.03718,2.15868,1.2382a2.77013,2.77013,0,0,0-2.281-1.427,4.75465,4.75465,0,0,0-.98779.0512c-2.18872.26941.59564.41218.36105.34041a2.514,2.514,0,0,0-2.43237.64293c-.46418.44581-1.33993.32006-1.90554.73424a1.88931,1.88931,0,0,0-.64389.70142q-.40124,1.134-.4544.00855c-3.21807-.02241-3.22147,4.97757,0,5Z"/>
  <path class="9cef173c-7752-42fe-8497-8c519fa1dcdb" d="M84.53884,92.91567c-.03612.08967-.24715.49149-.06551.21584-.10034.15228-.30727.441-.07789.12238.13891-.19294-.39079.22217-.17225.12867.10625-.04545.20776-.11473.31451-.16222l-3.42047-3.42047a8.51067,8.51067,0,0,0-.77736,1.336,2.69485,2.69485,0,0,0-.252,1.9264,2.50063,2.50063,0,0,0,4.56937.5972,8.51067,8.51067,0,0,1,.77736-1.336,2.50782,2.50782,0,0,0-.39091-3.02956,2.64181,2.64181,0,0,0-3.02956-.39091,4.63361,4.63361,0,0,0-2.29666,2.68349,2.50724,2.50724,0,0,0,.252,1.9264,2.49986,2.49986,0,0,0,3.42047.89688,2.91407,2.91407,0,0,0,1.1489-1.49408Z"/>
  <path class="9cef173c-7752-42fe-8497-8c519fa1dcdb" d="M59.29067,89.28712l.79594.26556V93.87a3.10894,3.10894,0,0,1,.28426-.15121,1.19151,1.19151,0,0,1-.70875.17282l-2.15868-1.2382q-.33547-1.53078-.28652-.886l.01638.27483a2.5,2.5,0,0,0,5,0A7.72228,7.72228,0,0,0,62.107,90.7997,2.53949,2.53949,0,0,0,60.62532,89.107a3.43555,3.43555,0,0,0-3.06231.44573,2.50876,2.50876,0,0,0-1.2382,2.15868A2.44988,2.44988,0,0,0,57.563,93.87a3.47882,3.47882,0,0,0,1.72766.41709,2.5,2.5,0,1,0,0-5Z"/>
  <path class="9cef173c-7752-42fe-8497-8c519fa1dcdb" d="M95.66714,94.08338,95.611,93.03373l-2.5,2.5a14.40756,14.40756,0,0,1,2.29053.09571c.62944.15814,1.04942.46379,1.72322.57975q-.76877-.66266-.17121-.186a2.07447,2.07447,0,0,0,.75816.43649,7.2561,7.2561,0,0,0,1.83946.402,18.10192,18.10192,0,0,0,2.90559.80437c1.25219.05236,1.66037-.59225,2.66272-1.06388h-2.5236c-1.44091-.94837-.04619.095.316.35482a2.473,2.473,0,0,0,1.7469.51564,2.6114,2.6114,0,0,0,2.4107-1.8354l-.08655.153-1.49408,1.1489.13354-.04567c3.02732-1.03519,1.72725-5.86654-1.3292-4.8214a3.00219,3.00219,0,0,0-2.04511,2.23594l2.4107-1.8354-.23211.02114,1.76777.73223c-.69551-.6113-1.61289-1.52805-3.00133-1.19321q-.46286.1811-.90936.3989-1.16992.76035.35993.12816a5.26735,5.26735,0,0,0-2.1912-.65552,14.791,14.791,0,0,1-2.62091-.61483q.5493.16394-.43682-.20737a3.01055,3.01055,0,0,0-1.37858-.38331c-.95857-.16671-1.93769-.09067-2.90513-.16515a2.514,2.514,0,0,0-2.5,2.5l.05616,1.04965c.17124,3.20068,5.17232,3.22081,5,0Z"/>
  <path class="9cef173c-7752-42fe-8497-8c519fa1dcdb" d="M92.95837,91.83386a4.399,4.399,0,0,0-1.79041.222,2.94953,2.94953,0,0,0-1.65038,1.93l1.1489-1.49408-.08064.05488,1.2618-.34132.95576.26115a2.5004,2.5004,0,1,0-2.5236,4.31735,2.82918,2.82918,0,0,0,2.531.20619,2.57037,2.57037,0,0,0,1.08066-.82478,4.66527,4.66527,0,0,0,.55-1.10718l-1.1489,1.49408.10036-.05288-1.2618.34132c.274-.02061.55243-.00757.82721-.00666a2.5,2.5,0,0,0,0-5Z"/>
  <path class="9cef173c-7752-42fe-8497-8c519fa1dcdb" d="M116.22715,90.72534a11.65676,11.65676,0,0,0-.941-1.28073,2.52644,2.52644,0,0,0-2.43237-.64293,3.88549,3.88549,0,0,0-1.59129.5658l2.43237,4.17846.33161-.35468L110.491,89.65573l-.72792.8036c-1.53052,1.68965-.06812,5.13394,2.43237,4.17846q.85583-.34713,1.72935-.646,1.41808-.23415-.26874-1.79677c-.097,2.06441,2.87562,3.43421,4.26777,1.76777l1.05961-1.26839-3.92644-.506a8.65127,8.65127,0,0,0,.68681,1.13615,2.46976,2.46976,0,0,0,2.15868,1.2382c1.76286-.23678,1.93805-1.27637,3.34617-1.89541l-3.42047-.89688-.064.08894c.382,3.10913,4.91488,3.309,5,0l.04786-1.86063-4.9107.6646c.47943,1.54134.94157,3.22032,2.75461,3.53685a2.91725,2.91725,0,0,0,1.88235-.30223c.61828-.3266,1.06482-1.627,1.47748-1.80408l-3.02956-.39091c1.05577.87015.86582,2.60384,2.41892,3.41982a2.50326,2.50326,0,0,0,2.5236,0c1.791-1.23107,1.83692-2.43457,2.02371-4.54044l-4.65868,1.2618c.731,1.6098,1.16333,3.08372,2.99708,3.58859a2.45036,2.45036,0,0,0,2.43237-.64293,5.36081,5.36081,0,0,0,1.09947-2.95379l-2.4107,1.8354c.636-.03829,2.19482.72423,3.3585.08852A3.16907,3.16907,0,0,0,132.3443,90.803l-2.5,2.5c2.41834.27308,3.72375-1.12578,3.97638-3.40117L129.162,91.1636l.34392.5458c1.196,1.89806,5.00267,1.36738,4.65868-1.2618l-.1997-1.52633c-.41152-3.14528-5.41688-3.18625-5,0l.1997,1.52633,4.65868-1.2618-.34392-.5458c-1.40785-2.23427-4.39333-1.12814-4.65868,1.2618l-.07184.64706,1.2382-2.15868-.14274-.08721a2.5199,2.5199,0,0,0-2.5,2.5c-.00746-1.18816,2.91162-2.30266.06765-2.13143a2.55,2.55,0,0,0-2.4107,1.8354c-.03254.17861-.34313,1.42688.18639.74746l2.43237-.64293q1.33512,1.36164.66405.1912l-.673-1.482c-1.1273-2.48249-4.46411-.93171-4.65868,1.2618l.45269.22309h2.5236c-.57719-.30325-.73553-2.0846-1.407-2.638a2.66444,2.66444,0,0,0-3.02956-.39091,2.50216,2.50216,0,0,0-.95876.82162c-.7656.9551-.99244.67462.45483.6467l2.15868,1.2382a4.1877,4.1877,0,0,1-.42419-1.1489,2.51191,2.51191,0,0,0-4.9107.6646l-.04786,1.86063h5a5.582,5.582,0,0,0-.61865-2.61253,2.59428,2.59428,0,0,0-3.42047-.89688c-.63648.27981-2.69863,1.46474-.82258,1.21276l2.15868,1.2382a8.65127,8.65127,0,0,1-.68681-1.13615,2.51686,2.51686,0,0,0-3.92644-.506l-1.05961,1.26839,4.26777,1.76777c.21477-4.56862-5.15729-3.3846-7.78981-2.37868l2.43237,4.17846.72792-.8036c2.15208-2.37584-1.327-5.89772-3.53553-3.53553l-.33161.35468c-1.55031,1.65816-.03421,5.18992,2.43237,4.17846a3.88549,3.88549,0,0,1,1.59129-.5658l-2.43237-.64293.15915.26879c1.68652,2.73355,6.01331.22524,4.31735-2.5236Z"/>
  <path class="cb001939-02cb-4ecb-bddb-fbb23d958672" d="M62.83333,96.54167,62.78955,95.362c-.08687-2.3405-2.596-3.06823-4.26777-1.76777l-.327.25439,4.26777,1.76777-.10375-.91959c-.201-1.78118-1.99867-3.24789-3.7618-2.15868l-2.04672,1.26441,3.6725,2.82328.31985-1.48128c.67509-3.12651-4.001-4.46267-4.8214-1.3292-.66482,2.5392.84066,4.01989,3.23428,4.397,2.14495.338,4.61182-2.42,2.43237-4.17846a3.92976,3.92976,0,0,0-2.92275-1.13274c-2.76957.03137-3.45794,4.22161-.6646,4.9107,2.507.61844,4.04943-.27445,6.55813-.65184l-1.9264-4.56937-1.0361.70017c-2.17393,1.46907-1.17409,4.36408,1.2618,4.65868q-.9009-.48973-.304.10093a2.44076,2.44076,0,0,0,2.43237.64293,7.29224,7.29224,0,0,0,2.79975-1.71945l-3.92644-.506.5807.79173a2.5409,2.5409,0,0,0,4.56937-.5972l.649-1.66148h-4.8214l.1911.67c.79946,2.80292,4.71476,2.09236,4.9107-.6646l.11549-1.625-4.65868,1.2618a3.24455,3.24455,0,0,0,2.30445,1.87675A2.58448,2.58448,0,0,0,70.3236,95.371a5.88657,5.88657,0,0,0,.8541-2.33465l-4.56937.5972c1.36245,2.55459,3.37557,3.36785,5.76728,1.501H68.84008l1.21606,1.32088a2.5088,2.5088,0,0,0,3.53553,0q.27584-.35735.57182-.6982l-3.02956.39091.96691,1.13653c1.06736,1.309,3.13745.7273,3.92644-.506-.6741,1.05367-2.02675.24754-.63274,1.35043a4.17921,4.17921,0,0,0,1.721.46462c.39121.069.96634-.42045,1.2618-.34132-1.10774-.29666.0572.50475.241.60256a2.57964,2.57964,0,0,0,3.02956-.39091c.88317-.83081.86761-.42818-.00817-.27249l-2.43237-.64293c.51342.42845.82816.98944,1.35059,1.4173a2.53327,2.53327,0,0,0,4.17846-1.10317l.23976-.91083h-4.8214l.3145.8502c.94727,2.56079,4.85967,2.29167,4.9107-.6646l.21917-1.13257-4.56937-.5972c1.26346,3.62914.6588,5.03909,3.55883,7.80884a2.51095,2.51095,0,0,0,3.92644-3.02956,15.12474,15.12474,0,0,1-1.25958-2.49841l-4.31735,2.5236c.758,1.66331,2.5914,3.42957,2.764,5.28352l4.26777-1.76777-.53914-.47019a2.52121,2.52121,0,0,0-4.17846,2.43237l.349,1.449,4.56937-1.9264-.7215-1.272a2.51911,2.51911,0,0,0-4.65868,1.2618l.00791.39379,4.26777-1.76777-3.90271-3.55085c-1.50811-1.37214-4.38361-.50874-4.26777,1.76777a21.63291,21.63291,0,0,0,.55754,4.18676l4.56937-1.9264q-1.6879-3.63751-3.361-7.28182c-1.16238-2.53191-4.3952-.878-4.65868,1.2618a41.64884,41.64884,0,0,0-.28408,5.09066l4.65868-1.2618a17.89626,17.89626,0,0,1-1.24834-2.986c-.6364-1.78965-3.62605-2.743-4.56937-.5972l-1.0309,2.345q-.88351,1.45538.42857.24566l3.0753,1.7461q-.26389-1.45394-.49606-2.91329c-.34022-2.066-3.69147-2.48138-4.56937-.5972L72.471,102.5695l4.56937.5972-.08671-1.41138a2.522,2.522,0,0,0-1.8354-2.4107c-2.8915-.70689-5.19989,2.49823-7.12229,4.178l4.26777,1.76777-.28235-3.405c-.15839-1.9101-2.77534-3.61252-4.26777-1.76777-.36564.452-3.3097,3.24239-1.70671,3.54555l1.7461,1.7461-.01232-1.07855c-.01665-1.47862-1.60807-3.02357-3.1646-2.4107a31.15327,31.15327,0,0,0-3.61317,1.64425l3.7618,2.15868-.13889-1.09708c-.3987-3.14924-5.40374-3.18909-5,0l.13889,1.09708c.2366,1.86889,1.94186,3.129,3.7618,2.15868l2.41877-1.1402-3.1646-2.4107a8.80966,8.80966,0,0,0,.19093,2.40775,2.4748,2.4748,0,0,0,1.7461,1.7461c3.31114.62619,4.83146-2.68066,6.57144-4.83141l-4.26777-1.76777.28235,3.405a2.53539,2.53539,0,0,0,4.26777,1.76777c-.01181.01032,3.53939-2.57873,2.25756-2.8921l-1.8354-2.4107a8.70872,8.70872,0,0,0,.26531,2.74058c.44447,2,3.6601,2.54872,4.56937.5972l1.49639-3.2116-4.56937-.5972q.23216,1.45935.49606,2.91329a2.5094,2.5094,0,0,0,3.0753,1.7461c2.27473-.83512,2.64829-2.74524,3.59048-4.88849l-4.56937-.5972a41.03308,41.03308,0,0,0,1.75238,4.18036c1.11626,2.30243,4.65284,1.09616,4.65868-1.2618a41.64884,41.64884,0,0,1,.28408-5.09066l-4.65868,1.2618q1.67308,3.64435,3.361,7.28182c1.24443,2.6818,5.14091.70989,4.56937-1.9264l-.37894-2.85756L81.628,103.81332l3.90271,3.55085a2.53023,2.53023,0,0,0,4.26777-1.76777l-.00791-.39379-4.65868,1.2618.7215,1.272c1.4217,2.50647,5.2259.79935,4.56937-1.9264l-.349-1.449-4.17846,2.43237.53914.47019c1.469,1.28117,4.48485.56376,4.26777-1.76777-.29635-3.18285-2.16916-5.00373-3.44666-7.80712-1.33572-2.93112-5.61877-.38556-4.31735,2.5236a15.12475,15.12475,0,0,0,1.25958,2.49841l3.92644-3.02956-1.6929-1.61685q.37279.92487.19064-.22638c-.37181-1.1955-.33984-2.52164-.77071-3.75928-.64156-1.84281-3.57767-2.68939-4.56937-.5972A7.29346,7.29346,0,0,0,80.38,97.13758l4.9107-.6646-.3145-.8502c-.81265-2.19687-4.15128-2.54571-4.8214,0l-.23976.91083,4.17846-1.10317c-2.45989-2.01461-3.42028-2.91089-5.98111-.50188l3.02956-.39091c-.8418-.44792-1.309-1.3569-2.41269-1.46559-.62-.06106-1.09616.29577-1.63955.30022-1.66858.01367,1.29455.3455.15772-.11789-2.31552-.94384-3.90944-1.54412-5.53753,1.00073l3.92644-.506a6.39577,6.39577,0,0,0-1.97885-1.91835,2.52981,2.52981,0,0,0-3.02956.39091q-.296.34085-.57182.6982h3.53553L72.37561,91.599a2.5663,2.5663,0,0,0-3.53553,0l-.50449.39378,2.43237-.64293.15773-.23992a2.52651,2.52651,0,0,0-4.56937.5972l-.35006,1.14025,2.82328-1.1489.6837.42105c-1.22157-2.35461-4.495-1.04144-4.65868,1.2618l-.11549,1.625,4.9107-.6646-.1911-.67c-.72418-2.539-3.96356-2.1962-4.8214,0l-.649,1.66148,4.56937-.5972-.5807-.79173a2.55493,2.55493,0,0,0-3.92644-.506l-.59341.43359,2.43237.64293a4.22735,4.22735,0,0,0-3.23154-1.56539l1.2618,4.65868,1.0361-.70017c2.44913-1.655.8395-4.98545-1.9264-4.56937-1.17381.17658-2.70566.9464-3.89974.65184l-.6646,4.9107-.61278-.33173L60.28469,93.391l.25792,1.75356-4.8214-1.3292-.31985,1.48128c-.44077,2.0413,1.72405,4.027,3.6725,2.82328l2.04672-1.26441-3.7618-2.15868.10375.91959a2.54094,2.54094,0,0,0,4.26777,1.76777l.327-.25439L57.78955,95.362l.04378,1.17965c.11906,3.2077,5.11964,3.22331,5,0Z"/>
  <path class="cb001939-02cb-4ecb-bddb-fbb23d958672" d="M56.75376,101.13355l-1.87279.44564,2.15868,3.7618.73689-1.56312a2.51177,2.51177,0,0,0-3.92644-3.02956,16.20526,16.20526,0,0,0-1.73161,1.66191l3.53553,3.53553.06892-.08077c1.21545-1.42445.59553-4.58495-1.76777-4.26777a9.05013,9.05013,0,0,0-3.52956,1.6138l3.02956,3.92644a18.95381,18.95381,0,0,0,2.62825-5.05481l-4.56937-.5972.08924.39868a2.52581,2.52581,0,0,0,4.56937.5972q.72646-1.47516,1.59251-2.87295L53.19581,97.682l-.22612.95128c-.5487,2.30835,2.42539,4.36767,4.17846,2.43237l.71442-.78869-4.26777-1.76777c.10508,2.16733-.59759,5.31,1.76989,6.4783,2.32455,1.14707,4.86725-1.2575,6.561-2.54234l-3.7618-2.15868c.179,1.63377-.281,3.26159-.17311,4.91148.12531,1.9162,2.80448,3.6103,4.26777,1.76777a26.33017,26.33017,0,0,0,3.09322-4.76428c1.17814-2.37932-1.99322-5.34186-3.92644-3.02956a11.16771,11.16771,0,0,1-1.92368,2.02955l2.15868,1.2382-.33018-.738v2.5236l.43957-.7543c1.38754-2.38105-2.04011-5.24721-3.92644-3.02956a8.95684,8.95684,0,0,0-1.43359,2.09153l4.65868,1.2618.17569-2.43748a2.50694,2.50694,0,0,0-2.5-2.5c-3.405.33275-5.20851,3.002-6.44989,6.02771-.941,2.29348,2.63058,4.293,4.17846,2.43237a33.51264,33.51264,0,0,0,2.10793-2.78857l-4.56937-.5972.10454,1.73792c.012,2.79792,4.17906,3.42206,4.9107.6646a7.3535,7.3535,0,0,1,1.54274-3.419l-4.56937-.5972.23418,1.2963h5l.04993-4.388c.03775-3.31722-4.59232-3.08459-5,0l-.10879.82313c-.33871,2.56275,3.5124,3.25143,4.65868,1.2618a2.5641,2.5641,0,0,0,.53327-.99737l-3.02956-.39091q-.984-.01538-.34936,1.29906c.02827,1.454,1.60388,3.05385,3.1646,2.4107,2.59331-1.06867,3.96289-2.55572,5.68139-4.768l-4.26777-1.76777.12532,1.47509c.14472,1.70346,2.07888,3.35663,3.7618,2.15868q1.02978-.70764,2.014-1.47723l-2.43237-.64293.36454.41709L65.75675,96.595a18.904,18.904,0,0,1-.88794,2.73086,2.51586,2.51586,0,0,0,3.0753,3.0753A25.20736,25.20736,0,0,0,73.12536,99.647l-3.42047-3.42047A10.91886,10.91886,0,0,1,67.35554,99.565l3.53553,3.53553a10.79887,10.79887,0,0,1,2.36612-2.34745l-3.6725-2.82328-.34364,1.66466a2.5318,2.5318,0,0,0,3.6725,2.82328q1.54064-.85509,3.014-1.82151L72.898,96.66983l-.83722,1.02269c-1.68262,2.05537.44826,5.54426,3.02956,3.92644l1.02281-.641c2.72026-1.70491.21351-6.03282-2.5236-4.31735l-1.02281.641,3.02956,3.92644.83722-1.02269c1.68086-2.05321-.45057-5.55082-3.02956-3.92644q-1.47336.96642-3.014,1.82151l3.6725,2.82328.34364-1.66466c.38879-1.88335-1.7791-4.25751-3.6725-2.82328A19.536,19.536,0,0,0,67.35554,99.565c-2.03257,2.43312,1.19485,5.82471,3.53553,3.53553a14.59979,14.59979,0,0,0,3.13117-4.35049c1.00278-2.11921-1.13473-4.83569-3.42047-3.42047a20.77893,20.77893,0,0,1-3.98686,2.25015l3.0753,3.0753c.78116-2.16859,1.52533-3.69835-.11952-5.58031a2.42182,2.42182,0,0,0-2.43237-.64293,15.71394,15.71394,0,0,0-3.20841,1.98127l3.7618,2.15868-.12532-1.47509c-.15939-1.87618-2.80232-3.65425-4.26777-1.76777-.93719,1.20645-2.01729,2.88137-3.47505,3.48209l3.1646,2.4107c-.03129-1.60932.30179-3.68885-1.1151-4.83459a2.581,2.581,0,0,0-3.02956-.39091,7.48471,7.48471,0,0,0-2.327,2.79113l4.65868,1.2618.10879-.82313h-5l-.04993,4.388c-.03662,3.21845,4.96275,3.22054,5,0a6.166,6.166,0,0,0-.41279-2.6255,2.53565,2.53565,0,0,0-4.56937-.5972,14.91936,14.91936,0,0,0-2.04678,4.61345l4.9107.6646a18.41673,18.41673,0,0,0-.28314-3.06711c-.365-2.30938-3.4912-2.18692-4.56937-.5972l-1.32611,1.77663,4.17846,2.43237a6.78493,6.78493,0,0,1,1.6285-2.35691l-2.5-2.5-.17569,2.43748c-.176,2.44116,3.57717,3.45255,4.65868,1.2618l.65177-1.07959-3.92644-3.02956c-.90873,1.55939-.84,2.38273-.10939,4.01593a2.414,2.414,0,0,0,2.15868,1.2382c2.41473-.21417,3.94444-1.68222,5.45921-3.494l-3.92644-3.02956a20.11227,20.11227,0,0,1-2.3114,3.75235l4.26777,1.76777c-.11025-1.68584.35569-3.24467.17311-4.91148-.17932-1.63707-2.07789-3.436-3.7618-2.15868l-1.06769.80991q-1.99834.58431-.37677,1.46187c1.02414,2.44.64053-1.82016.63713-1.89039-.09884-2.03872-2.73642-3.4583-4.26777-1.76777l-.71442.78869,4.17846,2.43237.22612-.95128c.64577-2.71672-3.10278-4.427-4.56937-1.9264q-.86605,1.39778-1.59251,2.87295l4.56937.5972-.08924-.39868c-.43837-1.9584-3.70687-2.59474-4.56937-.5972-.53467,1.23828-.95214,2.97-1.84643,4.04287-1.72653,2.07127.44458,5.47793,3.02956,3.92644q1.23572-.10075,1.006-.93115l-1.76777-4.26777-.06892.08077c-2.06238,2.417,1.26758,5.87972,3.53553,3.53553a16.20526,16.20526,0,0,1,1.73161-1.66191l-3.92644-3.02956-.73689,1.56312a2.53029,2.53029,0,0,0,2.15868,3.7618,6.47153,6.47153,0,0,0,3.202-.62424c2.927-1.21989,1.64253-6.05994-1.3292-4.8214Z"/>
  <path class="cb001939-02cb-4ecb-bddb-fbb23d958672" d="M106.687,94.73406c-1.89266,1.10989-2.955,2.09319-3.52149,4.21081a9.5284,9.5284,0,0,1-1.46586,3.2202,13.09133,13.09133,0,0,0-2.1126,2.74157,2.50209,2.50209,0,0,0,4.31735,2.5236c.752-1.009,1.46535-2.0738,2.22182-3.07284a26.65925,26.65925,0,0,1,2.84984-2.57374,5.76183,5.76183,0,0,0,1.4738-2.36355c.44957-1.47864-.08124-2.7019,1.22242-3.8361,2.432-2.11587-1.11682-5.63983-3.53553-3.53553a6.784,6.784,0,0,0-2.12939,3.162c-.42549,1.41967-.02538,2.49966-1.1782,3.54544a16.18957,16.18957,0,0,0-2.61767,2.48066c-.88159,1.22645-1.71963,2.45614-2.62445,3.67011l4.31735,2.5236c.73729-1.71195,2.38651-3.04,3.22177-4.82359.39256-.83826.52919-1.903.9404-2.69181q.13614-.79189.01955-.16158a12.00242,12.00242,0,0,1,1.12446-.70185c2.77411-1.62679.26073-5.95014-2.5236-4.31735Z"/>
  <path class="cb001939-02cb-4ecb-bddb-fbb23d958672" d="M111.0836,96.66691,110.365,98.2605l4.56937,1.9264q.513-1.57539,1.17965-3.09218l-4.8214-1.3292a28.724,28.724,0,0,1-1.36135,3.59991l4.65868,1.2618.50212-2.60474-4.8214-1.3292a11.82422,11.82422,0,0,1-1.73485,4.79943l4.31735,2.5236a12.93464,12.93464,0,0,1,2.70784-3.749l-3.92644-3.02956a33.5876,33.5876,0,0,1-3.08038,5.41187l4.31735,2.5236A37.98387,37.98387,0,0,1,115.855,100.39l-4.31735-2.5236a53.27868,53.27868,0,0,1-4.73231,5.90472l4.17846,2.43237.83159-1.57792c1.6771-2.79484-2.51175-5.14065-4.31735-2.5236-.94417,1.36849-1.91223,2.69622-2.92641,4.01367l4.31735,2.5236a13.83858,13.83858,0,0,1,2.07863-2.44378l-3.92644-3.02956a24.96211,24.96211,0,0,1-2.33,3.75818l4.31735,2.5236a17.82728,17.82728,0,0,1,5.37259-4.82336l-3.42047-3.42047-2.77241,1.96223c-3.19857.14757-3.23708,4.98353,0,5l6.14577.03128v-5l-8.73725.08426c-3.23078.03116-3.20514,4.8532,0,5a7.60241,7.60241,0,0,0,3.74779-.49774c3.04924-.974,1.794-5.68085-1.3292-4.8214a14.72732,14.72732,0,0,0-4.53877,2.05638l3.02956,3.92644a2.711,2.711,0,0,0,1.09193-1.90018c.25541-1.8396-1.05252-3.59441-3.0753-3.0753a6.4206,6.4206,0,0,0-2.657,1.4046c-2.34507,1.82129.63781,5.13917,3.02956,3.92644l1.11069-.56317-3.42047-.89688c2.11653,4.12539,6.26553,2.66588,9.084.17367l-4.17846-1.10317c1.46833,4.29438,4.60631,3.31,7.12931.54594l-4.17846-1.10317c.87921,5.02386,7.46149,1.37411,9.70316-.13646l-3.42047-.89688.22607.46908c.23377,1.86184,1.94609,3.13862,3.7618,2.15868l1.18308-.63851-3.6725-2.82328-.34626,1.00114a2.52313,2.52313,0,0,0,2.4107,3.1646,6.57907,6.57907,0,0,0,4.05772-.95709c2.12442-1.0627,1.21681-3.84842-.5972-4.56937-3.73895-1.486-5.80859,4.72705-2.39369,6.22367a2.54027,2.54027,0,0,0,3.6725-2.82328l-.06758-.44779a2.44058,2.44058,0,0,0-1.7461-1.7461l-.469-.11971a2.57211,2.57211,0,0,0-2.82328,1.1489,2.98971,2.98971,0,0,0-.3559,2.83553,2.4888,2.4888,0,0,0,1.7461,1.7461c2.5343.43626,3.4688-.32908,5.39924-1.99822l-4.17846-1.10317.12.34622a2.54952,2.54952,0,0,0,2.4107,1.8354,14.25064,14.25064,0,0,0,5.49179-1.54806l-3.7618-2.15868-.08322.6938c-.22843,1.90443,2.285,3.0902,3.7618,2.15868l1.32134-.83346c1.0389-.65531,1.73773-2.31286.89688-3.42047l-.29291-.38584c-1.43206-1.88637-4.59861-1.41243-4.65868,1.2618l-.03318,1.47715a2.52073,2.52073,0,0,0,2.5,2.5c1.9827-.10689,3.37384-.3792,4.37075-2.21656,1.27457-2.34912-1.21-4.39525-3.42047-3.42047l-.53932.23783c-1.68131.74142-1.58868,3.54554,0,4.31735a3.74086,3.74086,0,0,0,3.47073.33714l-3.0753-1.7461c.84292,2.09946,2.33321,3.09757,4.60059,2.52082a2.54,2.54,0,0,0,1.7461-3.0753,5.33782,5.33782,0,0,0-5.92754-4.40254l2.4107,1.8354c-1.11815-6.46288-11.18537-4.2275-8.49033.84275,1.54216,2.9013,5.5787.35192,4.31735-2.5236-1.49227-3.402-4.90993-2.90405-7.98791-2.26851a2.51406,2.51406,0,0,0-1.7461,3.0753c1.09964,3.10027,4.33895,3.4719,6.21674.82634a2.51076,2.51076,0,0,0-1.49408-3.6725c-2.23679-.34241-3.66308-.06626-5.26555,1.60439l3.92644,3.02956c2.49977-4.218-1.81456-6.78627-5.6704-5.21129l3.0753,3.0753a3.26293,3.26293,0,0,0-.97647-3.715,2.57811,2.57811,0,0,0-3.02956-.39091c-1.54256.72015-1.83822,1.59827-2.00607,3.23885a2.45537,2.45537,0,0,0,1.2382,2.15868,3.62682,3.62682,0,0,0,4.87606-.58009,2.52679,2.52679,0,0,0-1.76777-4.26777,8.09591,8.09591,0,0,0-5.60417,2.23752c-2.12786,1.82005.7673,5.66237,3.02956,3.92644,1.98272-1.52142,5.78565-3.92317,3.29951-6.84224-1.9263-2.26175-4.71547-1.06073-6.068,1.0328a2.47774,2.47774,0,0,0,0,2.5236l.19159.31129a2.55669,2.55669,0,0,0,3.42047.89688c3.1518-1.6488,4.27089-7.59218-.75522-6.982l2.15868,3.7618a5.90338,5.90338,0,0,0,.57-4.22013c-.32454-2.105-3.66681-2.43627-4.56937-.5972l-.08923.18181a2.5857,2.5857,0,0,0,.39091,3.02956l.17122.17161a2.549,2.549,0,0,0,3.02956.39091q.43036-.26385.877-.49917l-3.02956-.39091c1.80524,1.81614,4.03126,2.16354,5.57367-.18453a2.5304,2.5304,0,0,0-1.49408-3.6725l-.75781-.27492c-2.04338-.7413-3.96865,1.90577-2.82328,3.6725,2.03715,3.14228,6.28607,2.96415,8.912.60805l-2.43237.64293a14.41523,14.41523,0,0,0,4.09746.85793l-1.76777-4.26777c-1.56446,1.34357-1.18664,2.98485-.43073,4.65052a2.53862,2.53862,0,0,0,3.42047.89688,9.72419,9.72419,0,0,0,2.08116-1.44251l-3.53553-3.53553-.526.45507c-1.55988,1.34948-.49508,3.55582,1.10317,4.17846a4.42762,4.42762,0,0,0,2.37073.35264,2.50163,2.50163,0,0,0,0-5c-2.26458-.20967-4.52136-.34937-6.79451-.42061-2.43171-.07621-3.46834,3.517-1.2618,4.65868a6.47194,6.47194,0,0,0,3.15292.84739l-2.5-2.5.13784,1.07708a2.55031,2.55031,0,0,0,3.1646,2.4107c3.32262-.7188,5.49394-4.23594,8.55478-5.55005l-3.7618-2.15868a8.64638,8.64638,0,0,1-.33262,4.59475c-.70154,2.69418,3.17482,4.4596,4.56937,1.9264a6.66116,6.66116,0,0,0,1.03511-2.99926,27.41247,27.41247,0,0,0-.42343-2.85661l-4.26777-1.76777a19.8317,19.8317,0,0,0,1.91823,7.7069,2.45192,2.45192,0,0,0,2.15868,1.2382l.50882-.00774-2.4107-1.8354.14051.96789c.46053,3.17226,5.27907,1.82336,4.8214-1.3292l-.14051-.96789a2.50335,2.50335,0,0,0-2.4107-1.8354l-.50882.00774,2.15868,1.2382a10.62168,10.62168,0,0,1-1.23559-5.18331c-.09859-2.0572-2.72434-3.43462-4.26777-1.76777a5.11651,5.11651,0,0,0-1.61275,2.73684c-.22489,1.46255,1.01587,2.68392.21925,4.131l4.56937,1.9264a15.93172,15.93172,0,0,0,.51122-5.92395,2.54451,2.54451,0,0,0-3.7618-2.15868,25.363,25.363,0,0,0-4.81658,3.19943c-.663.47444-1.83158,1.6925-2.5438,1.84658l3.1646,2.4107-.13784-1.07708a2.58068,2.58068,0,0,0-2.5-2.5L124.358,95.168l-1.2618,4.65868c2.27315.07124,4.52993.21095,6.79451.42061v-5l-1.04153-.174,1.10317,4.17846.526-.45507c2.444-2.11431-1.09959-5.60172-3.53553-3.53553l-1.06922.66069,3.42047.89688-.35109,1.40861c1.822-1.56477.16823-4.05653-1.76777-4.26777l-2.76826-.67933a2.51352,2.51352,0,0,0-2.43237.64293,8.154,8.154,0,0,1-2.62859.07448l2.15868,1.2382-.58917-.9088-2.82328,3.6725.75781.27492-1.49408-3.6725-.2846.43325L119.23,93.797l.40513-.02246a2.5589,2.5589,0,0,0-3.02956-.39091q-.44659.23532-.877.49917l3.02956.39091-.17122-.17161.39091,3.02956.08923-.18181-4.56937-.5972-.066.36734c-.68588,1.50142.07619,4.01461,2.15868,3.7618L114.822,98.14643l3.42047.89688-.19159-.31129v2.5236l-.87712.36909-1.7461-1.7461.24386.7292.64293-2.43237a12.99219,12.99219,0,0,1-2.336,2.04867l3.02956,3.92644,2.06864-.77305-1.76777-4.26777L118.492,98.908l1.2382,2.15868.07754-.75789-1.2382,2.15868.69033-.32228-3.02956-.39091.53059.54671-.64293-2.43237-.19705.73593c-.44669,1.66825,1.23709,3.82614,3.0753,3.0753l1.75288-.21808-1.7461-1.7461.01707-.16953c-1.43535,2.42193,1.94038,5.10013,3.92644,3.02956l.40082-.31853-1.49408-3.6725,2.922.36806-1.7461,3.0753q1.93462-1.44966,2.34136-.02929l4.31735-2.5236-.19866-.37375v2.5236q1.35825.65417-.44975.8602a2.50163,2.50163,0,0,0,2.4107,1.8354l1.10614.73173,1.7461-3.0753,1.55.97138a2.54234,2.54234,0,0,0-3.0753-1.7461l.38206.1669v4.31735l.53932-.23783-3.42047-3.42047-.0534-.25984,2.5,2.5.03318-1.47715-4.65868,1.2618.29291.38584.89688-3.42047-1.32134.83346,3.7618,2.15868.08322-.6938c.244-2.03447-2.2618-2.91072-3.7618-2.15868l-2.96819.86541,2.4107,1.8354-.12-.34622a2.53661,2.53661,0,0,0-4.17846-1.10317l-.53451.71236,1.7461,1.7461-.14814,1.01726-2.82328,1.1489.469.11971-1.7461-1.7461.06758.44779,3.6725-2.82328-1.4591,2.91507-.5972-4.56937-1.53413.27445,2.4107,3.1646.34626-1.00114c.748-2.16272-1.86743-3.79747-3.6725-2.82328l-1.18308.63851,3.7618,2.15868a7.13668,7.13668,0,0,0-.90872-2.99267,2.52112,2.52112,0,0,0-3.42047-.89688,3.64677,3.64677,0,0,0-2.35817,3.12461c-.32293-1.84523-2.98287-2.413-4.17846-1.10317l-1.02006,1.11752q-1.46582,1.31362,2.24769.54288a2.53495,2.53495,0,0,0-4.17846-1.10317l-1.23113.83827a2.5462,2.5462,0,0,0-3.42047-.89688l-1.11069.56317,3.02956,3.92644.45063-.11874-3.0753-3.0753.19393-.30615c-2.19334,1.78344.67873,5.50069,3.02956,3.92644a7.29684,7.29684,0,0,1,3.34437-1.55234l-1.3292-4.8214-2.41859.31914v5l8.73725-.08426c3.21631-.031,3.22317-4.9836,0-5l-6.14577-.03128v5a7.72369,7.72369,0,0,0,7.08976-4.43863c1.07583-2.14166-1.16666-4.78092-3.42047-3.42047a24.18791,24.18791,0,0,0-7.16635,6.61712c-1.9134,2.59892,2.41822,5.07251,4.31735,2.5236a24.96212,24.96212,0,0,0,2.33-3.75818c1.244-2.45122-1.85913-5.14211-3.92644-3.02956a28.46245,28.46245,0,0,0-2.86045,3.45572c-1.89638,2.65936,2.40234,5.01128,4.31735,2.5236,1.01417-1.31745,1.98223-2.64518,2.92641-4.01367l-4.31735-2.5236a17.71249,17.71249,0,0,0-1.33563,2.77232c-.95234,2.35753,2.56933,4.17772,4.17846,2.43237A62.3134,62.3134,0,0,0,115.855,100.39c1.846-2.67721-2.44889-5.08017-4.31735-2.5236a37.98385,37.98385,0,0,0-2.98345,4.78325,2.502,2.502,0,0,0,4.31735,2.5236,33.5876,33.5876,0,0,0,3.08038-5.41187c1.12429-2.47632-1.7668-5.12606-3.92644-3.02956a16.67728,16.67728,0,0,0-3.48966,4.76094c-1.41612,2.86794,2.6004,5.28069,4.31735,2.5236a14.929,14.929,0,0,0,2.23889-5.99383c.4683-3.129-3.75937-4.4433-4.8214-1.3292a9.69846,9.69846,0,0,0-.68072,3.93394c-.06862,2.3446,3.63808,3.58852,4.65868,1.2618.69377-1.58164,1.32047-3.15328,1.86539-4.79431,1.03682-3.12237-3.63415-4.22338-4.8214-1.3292q-.66662,1.51679-1.17965,3.09218c-.93975,2.65983,3.28552,4.44718,4.56937,1.9264a26.72573,26.72573,0,0,0,1.22268-2.788c1.1439-3.01092-3.68786-4.31283-4.8214-1.3292Z"/>
  <path class="cb001939-02cb-4ecb-bddb-fbb23d958672" d="M140.05139,102.97053a17.33841,17.33841,0,0,0-2.67247-.97741,2.5118,2.5118,0,0,0-1.9264,4.56937,3.08226,3.08226,0,0,0,4.66608-3.56393c-.49954-1.6927-2.90719-2.5788-4.17846-1.10317a5.09831,5.09831,0,0,0-.2884,6.32887,5.26336,5.26336,0,0,0,6.11518.92676,3.49829,3.49829,0,0,0,.27365-5.46969c-2.06306-1.77692-4.67163-.30648-5.23482,2.08264l4.9107.6646c-.00181-1.99367-.02875-4.19681-2.12493-5.17444a3.3129,3.3129,0,0,0-4.35241,1.4391l4.56937,1.9264c.22479-1.231.49639-2.78615-.30323-3.88285a2.622,2.622,0,0,0-2.82328-1.1489l-.22584.05066a2.54824,2.54824,0,0,0-1.8354,2.4107l-.011.19012c-.17035,2.95612,4.021,3.19647,4.9107.6646.687-1.95516.63938-4.60651-1.61335-5.44893-1.9751-.7386-4.04148.68373-5.30219,2.10893a2.51147,2.51147,0,0,0,3.02956,3.92644,5.99877,5.99877,0,0,0,3.28423-3.54447,2.58828,2.58828,0,0,0-1.1489-2.82328c-1.998-1.41667-3.79094.12472-5.51906,1.05043l3.42047,3.42047c1.05251-1.45195,1.92053-3.09692,1.06054-4.83968a2.48776,2.48776,0,0,0-2.15868-1.2382,3.48822,3.48822,0,0,0-3.208,2.13119,2.50213,2.50213,0,0,0,4.31735,2.5236,6.39833,6.39833,0,0,0,1.19711-2.64481l-4.9107-.6646c.01728,3.1822,3.81878,4.02268,5.6604,1.683l-3.92644-.506c-.35486-.77011-.09285-.6201-.816-.20232a5.71731,5.71731,0,0,0-1.05564.9099c-2.286,2.271,1.24923,5.80689,3.53553,3.53553,2.09564-2.08194,4.15772-3.50216,2.65343-6.76672a2.50946,2.50946,0,0,0-3.92644-.506l-.283.3031,1.9264-.252.50125.34866.73223,1.76777-.00171-.31493c-.01489-2.74329-4.31375-3.49291-4.9107-.6646a2.97234,2.97234,0,0,1-.69307,1.45041l4.31735,2.5236-1.10932.34521-2.15868-1.2382.0804.16292-.252-1.9264a4.47037,4.47037,0,0,1-.88892,1.556c-1.56092,2.1533,1.39288,4.50661,3.42047,3.42047a3.93777,3.93777,0,0,0,.87068-.54267q1.00625-.493-.39882-.50776l-1.1489-2.82328c.09124-.348-.5776.346-.98643.55631l3.02956,3.92644a2.27762,2.27762,0,0,1,.65429-.64747q.576-.32016-.21683-.1756l-1.7461-1.7461a1.09948,1.09948,0,0,1-.13275,1.04444l4.9107.6646.011-.19012-1.8354,2.4107.22584-.05066-2.82328-1.1489-.20082.03006c-.4767,2.61061,3.17322,4.61109,4.56937,1.9264q-2.85211-1.58735-2.81848.13131a7.49046,7.49046,0,0,0-.02153,1.08043c.00252,2.76986,4.25195,3.4591,4.9107.6646l-.46562.43506-1.9264.252-.967-1.58327,1.1489-1.49408q.80169-.03147.15508-.03519-.42687-.00664-.85275-.03818l.99069.75234q.08787-.98493-.23443.04906l-4.17846-1.10317.13991.4741.252-1.9264-.23528.43473,1.49408-1.1489-.48382.10132,1.9264.252-.41439-.2695-1.9264,4.56937a7.52766,7.52766,0,0,1,1.47807.47337c2.9157,1.29181,5.4627-3.01517,2.5236-4.31735Z"/>
  <path class="cb001939-02cb-4ecb-bddb-fbb23d958672" d="M89.625,100.29167c3.21726,0,3.22259-5,0-5-3.21726,0-3.22259,5,0,5Z"/>
  <path class="cb001939-02cb-4ecb-bddb-fbb23d958672" d="M89.25,99.95833c3.21726,0,3.22259-5,0-5-3.21726,0-3.22259,5,0,5Z"/>
  <path class="4f211b3a-5f5e-4b32-b097-37cef8920a1d" d="M88.83333,99.75c3.21726,0,3.22259-5,0-5-3.21726,0-3.22259,5,0,5Z"/>
  <path class="4f211b3a-5f5e-4b32-b097-37cef8920a1d" d="M87.78826,98.958l.88838,1.0299,3.53553-3.53553-.58661-.46267c-1.8046-1.42333-4.96943-.18939-4.17846,2.43237a6.80467,6.80467,0,0,1,.27692,2.73656h5a4.6017,4.6017,0,0,0-.002-1.01654l-4.65868,1.2618a11.39864,11.39864,0,0,0,1.35173,1.76869,2.52239,2.52239,0,0,0,3.92644-.506l.13067-.22573H89.15482a6.087,6.087,0,0,1,.95294,4.06481l4.9107-.6646-.01782-.32261c-.03187-3.21555-5.01135-3.22388-5,0l.00281.7981c.01065,3.02584,3.88455,3.12408,4.9107.6646a3.85245,3.85245,0,0,1,1.95194-2.15386l-1.9264-.252.29744.127-1.1489-1.49408a5.38823,5.38823,0,0,0-.1135,1.277c-.10111,2.23014,2.769,3.21067,4.26777,1.76777q.93755-.28085.627-.81782l-2.82328-1.1489.11628.18924-.252-1.9264a3.06016,3.06016,0,0,1-.55764,1.43927,2.502,2.502,0,0,0,4.31735,2.5236l.29971-.44325-4.31735-2.5236a21.18526,21.18526,0,0,0-1.56327,2.78193,2.502,2.502,0,0,0,4.31735,2.5236c.88749-1.32086,2.675-4.20869,4.39309-4.57513a2.4313,2.4313,0,0,0,1.7461-1.7461,18.08162,18.08162,0,0,0,.29866-3.0389,2.52867,2.52867,0,0,0-3.7618-2.15868l-1.324.66388,3.42047,3.42047.47014-.5468c2.29986-2.26043-1.21884-5.77145-3.53553-3.53553q-1.19915.43633-.34853,1.13488l1.1489,1.49408.16108.66493c1.38274-2.09235-1.34519-4.72584-3.42047-3.42047q-1.623.87443-.11545.2967l2.15868,1.2382c.683,1.22516-.11421-.53108-.20952-.7171a2.97289,2.97289,0,0,0-1.07517-1.19378,3.19063,3.19063,0,0,0-2.80667.00791l1.9264.252-.24446-.12252,1.1489,1.49408a.8066.8066,0,0,0,.03485-.68882c-.03558-1.73589-2.15906-3.3265-3.7618-2.15868q-.55779.42455-1.14534.80664l2.4107,1.8354.06594.32007c.47426-2.58594-3.24253-4.65707-4.56937-1.9264l-.53781,1.10681c-.84217,1.73321.60621,4.55031,2.82328,3.6725,1.21961-.48289,2.15738-.13492,3.40753-.0242a10.25468,10.25468,0,0,0,3.72329-.41318c3.09116-.87473,1.77747-5.70051-1.3292-4.8214-2.41392.68308-4.71009-.52107-7.13082.43738l2.82328,3.6725.53781-1.10681-4.56937-1.9264a4.31009,4.31009,0,0,0-.06594,2.33832,2.59589,2.59589,0,0,0,2.4107,1.8354,6.23175,6.23175,0,0,0,3.66894-1.48929L93.47231,97.774c.02836,1.38393-.00765,2.68186,1.29265,3.51209a3.0688,3.0688,0,0,0,1.50626.46384c.27164.00608,2.731-.28611.88027-.25993l-2.15868-1.2382c-.71032-1.18286.0445.36691.21577.7054a2.70011,2.70011,0,0,0,1.36752,1.33149c1.3349.58463,2.47828-.05705,3.60225-.764l-3.42047-3.42047c-1.09175,1.652-1.19536,3.83867.81642,4.82986,2.12,1.04453,4.59208-.63338,6.075-2.06462l-3.53553-3.53553a8.64334,8.64334,0,0,0-1.252,1.55874c-1.45371,2.23311,1.32953,4.4689,3.42047,3.42047l1.324-.66388-3.7618-2.15868a7.03987,7.03987,0,0,1-.12006,1.7097l1.7461-1.7461c-3.24048.69113-5.64506,4.28894-7.38124,6.87293l4.31735,2.5236a21.18526,21.18526,0,0,1,1.56327-2.78193c1.7592-2.721-2.52842-5.16933-4.31735-2.5236l-.29971.44325,4.31735,2.5236c.71922-1.50186,1.67958-3.14439.69338-4.7493a2.53113,2.53113,0,0,0-2.82328-1.1489,8.39931,8.39931,0,0,0-2.83338,2.10368l4.26777,1.76777c.106-2.33691-.50443-5.23073-3.61837-4.42592-2.59237.67-4.30827,3.3029-5.26362,5.59268l4.9107.6646-.00281-.7981h-5a8.26148,8.26148,0,0,0,.19643,1.6518c.58984,2.8188,4.86371,2.09075,4.9107-.6646a10.34422,10.34422,0,0,0-1.63558-6.58841,2.52524,2.52524,0,0,0-4.31735,0l-.13067.22573,3.92644-.506-.56991-.75675c-1.24579-1.99214-4.80711-1.325-4.65868,1.2618a4.6017,4.6017,0,0,1,.002,1.01654c-.17271,3.23365,4.7501,3.17752,5,0a10.7624,10.7624,0,0,0-.45552-4.06575L88.09,99.52525l.58661.46267a2.5016,2.5016,0,0,0,3.53553-3.53553l-.88838-1.0299c-2.1053-2.44066-5.62855,1.10911-3.53553,3.53553Z"/>
</svg>
